<svg width="26" height="26" viewBox="0 0 26 26" fill="none" xmlns="http://www.w3.org/2000/svg">
<path d="M8.6187 11.7398C8.09975 11.7415 7.58999 11.8768 7.13847 12.1327C7.77417 10.4872 8.8285 9.0363 10.1971 7.92347C10.2755 7.85898 10.3403 7.7797 10.388 7.69015C10.4356 7.60061 10.4652 7.50255 10.475 7.40158C10.4847 7.3006 10.4745 7.1987 10.4449 7.10167C10.4153 7.00465 10.3669 6.9144 10.3024 6.8361C10.2379 6.75779 10.1586 6.69295 10.0691 6.64528C9.97951 6.59761 9.88145 6.56805 9.78048 6.55828C9.67951 6.54851 9.5776 6.55872 9.48058 6.58833C9.38355 6.61795 9.29331 6.66638 9.215 6.73087C6.40888 9.01084 5.16016 12.1677 5.16016 14.125C5.16499 14.8171 5.37123 15.4927 5.75368 16.0695C6.13613 16.6463 6.67825 17.0993 7.31386 17.3731C7.72521 17.5724 8.17568 17.6778 8.63273 17.6818C9.03503 17.7013 9.43711 17.639 9.8146 17.4985C10.1921 17.358 10.5371 17.1423 10.8287 16.8645C11.1204 16.5867 11.3525 16.2526 11.5112 15.8823C11.6698 15.5121 11.7516 15.1136 11.7516 14.7108C11.7516 14.308 11.6698 13.9094 11.5112 13.5392C11.3525 13.169 11.1204 12.8349 10.8287 12.557C10.5371 12.2792 10.1921 12.0636 9.8146 11.9231C9.43711 11.7826 9.03503 11.7202 8.63273 11.7398H8.6187Z" fill="#6D6CEE"/>
<path d="M16.4332 11.7375C15.9141 11.7386 15.4042 11.8739 14.9529 12.1303C15.5884 10.4866 16.6399 9.03616 18.0046 7.92113C18.09 7.85956 18.1619 7.78116 18.2159 7.69076C18.2699 7.60036 18.3048 7.49987 18.3185 7.39548C18.3322 7.29108 18.3244 7.18498 18.2955 7.08372C18.2667 6.98246 18.2174 6.88817 18.1508 6.80665C18.0841 6.72514 18.0015 6.65813 17.908 6.60974C17.8145 6.56136 17.712 6.53262 17.607 6.5253C17.502 6.51799 17.3965 6.53224 17.2972 6.56719C17.1979 6.60214 17.1068 6.65704 17.0295 6.72853C14.2233 9.0085 12.9746 12.1654 12.9746 14.1227C12.9779 14.8069 13.1782 15.4757 13.5514 16.0492C13.9246 16.6226 14.455 17.0766 15.0792 17.3567C15.501 17.5618 15.9642 17.6674 16.4332 17.6654C16.8355 17.6849 17.2375 17.6226 17.615 17.4821C17.9925 17.3416 18.3375 17.1259 18.6292 16.8481C18.9208 16.5703 19.153 16.2362 19.3116 15.866C19.4703 15.4958 19.5521 15.0972 19.5521 14.6944C19.5521 14.2916 19.4703 13.8931 19.3116 13.5228C19.153 13.1526 18.9208 12.8185 18.6292 12.5407C18.3375 12.2629 17.9925 12.0472 17.615 11.9067C17.2375 11.7662 16.8355 11.7039 16.4332 11.7234V11.7375Z" fill="#6D6CEE"/>
</svg>
