<svg width="26" height="26" viewBox="0 0 26 26" fill="none" xmlns="http://www.w3.org/2000/svg">
<path d="M8.523 11.775C8.00405 11.7767 7.49429 11.912 7.04277 12.1678C7.67846 10.5224 8.7328 9.07145 10.1014 7.95863C10.1797 7.89414 10.2446 7.81486 10.2923 7.72531C10.3399 7.63576 10.3695 7.5377 10.3793 7.43673C10.389 7.33576 10.3788 7.23385 10.3492 7.13683C10.3196 7.0398 10.2712 6.94956 10.2067 6.87125C10.1422 6.79295 10.0629 6.72811 9.97336 6.68044C9.88381 6.63277 9.78575 6.60321 9.68478 6.59344C9.58381 6.58366 9.4819 6.59388 9.38487 6.62349C9.28785 6.6531 9.19761 6.70153 9.1193 6.76602C6.31318 9.046 5.06445 12.2029 5.06445 14.1602C5.06929 14.8522 5.27552 15.5279 5.65798 16.1047C6.04043 16.6815 6.58255 17.1344 7.21815 17.4082C7.6295 17.6075 8.07997 17.7129 8.53703 17.7169C8.93933 17.7365 9.34141 17.6741 9.71889 17.5336C10.0964 17.3932 10.4414 17.1775 10.733 16.8997C11.0247 16.6219 11.2568 16.2877 11.4155 15.9175C11.5741 15.5473 11.6559 15.1487 11.6559 14.7459C11.6559 14.3432 11.5741 13.9446 11.4155 13.5744C11.2568 13.2041 11.0247 12.87 10.733 12.5922C10.4414 12.3144 10.0964 12.0987 9.71889 11.9582C9.34141 11.8178 8.93933 11.7554 8.53703 11.775H8.523Z" fill="#6D6CEE"/>
<path d="M16.3375 11.7726C15.8184 11.7737 15.3085 11.9091 14.8572 12.1655C15.4927 10.5218 16.5442 9.07132 17.9089 7.95628C17.9943 7.89472 18.0662 7.81632 18.1202 7.72592C18.1742 7.63552 18.2091 7.53503 18.2228 7.43063C18.2365 7.32623 18.2287 7.22014 18.1998 7.11887C18.171 7.01761 18.1217 6.92332 18.0551 6.84181C17.9884 6.7603 17.9058 6.69329 17.8123 6.6449C17.7188 6.59651 17.6163 6.56778 17.5113 6.56046C17.4062 6.55314 17.3008 6.5674 17.2015 6.60234C17.1022 6.63729 17.0111 6.6922 16.9338 6.76368C14.1276 9.04366 12.8789 12.2005 12.8789 14.1578C12.8822 14.842 13.0825 15.5108 13.4557 16.0843C13.8289 16.6578 14.3593 17.1117 14.9835 17.3919C15.4053 17.597 15.8685 17.7026 16.3375 17.7005C16.7398 17.7201 17.1418 17.6577 17.5193 17.5173C17.8968 17.3768 18.2418 17.1611 18.5335 16.8833C18.8251 16.6055 19.0573 16.2713 19.2159 15.9011C19.3746 15.5309 19.4564 15.1323 19.4564 14.7296C19.4564 14.3268 19.3746 13.9282 19.2159 13.558C19.0573 13.1878 18.8251 12.8536 18.5335 12.5758C18.2418 12.298 17.8968 12.0823 17.5193 11.9419C17.1418 11.8014 16.7398 11.739 16.3375 11.7586V11.7726Z" fill="#6D6CEE"/>
</svg>
