<svg width="346" height="76" viewBox="0 0 346 76" fill="none" xmlns="http://www.w3.org/2000/svg">
<rect x="137.801" width="70" height="70" rx="35" fill="#6E6CEE"/>
<g clip-path="url(#clip0_148_29)">
<path d="M155.301 45.2061V48.125C155.301 50.5381 161.18 52.5 168.426 52.5C175.672 52.5 181.551 50.5381 181.551 48.125V45.2061C178.728 47.1953 173.566 48.125 168.426 48.125C163.285 48.125 158.124 47.1953 155.301 45.2061ZM177.176 26.25C184.422 26.25 190.301 24.2881 190.301 21.875C190.301 19.4619 184.422 17.5 177.176 17.5C169.93 17.5 164.051 19.4619 164.051 21.875C164.051 24.2881 169.93 26.25 177.176 26.25ZM155.301 38.0352V41.5625C155.301 43.9756 161.18 45.9375 168.426 45.9375C175.672 45.9375 181.551 43.9756 181.551 41.5625V38.0352C178.728 40.3594 173.56 41.5625 168.426 41.5625C163.292 41.5625 158.124 40.3594 155.301 38.0352ZM183.738 38.7871C187.655 38.0283 190.301 36.6201 190.301 35V32.0811C188.715 33.2021 186.384 33.9678 183.738 34.4395V38.7871ZM168.426 28.4375C161.18 28.4375 155.301 30.8848 155.301 33.9062C155.301 36.9277 161.18 39.375 168.426 39.375C175.672 39.375 181.551 36.9277 181.551 33.9062C181.551 30.8848 175.672 28.4375 168.426 28.4375ZM183.417 32.2861C187.519 31.5479 190.301 30.0986 190.301 28.4375V25.5186C187.874 27.2344 183.704 28.1572 179.315 28.376C181.332 29.3535 182.815 30.666 183.417 32.2861Z" fill="white"/>
</g>
<defs>
<clipPath id="clip0_148_29">
<rect width="35" height="35" fill="white" transform="translate(155.301 17.5)"/>
</clipPath>
</defs>
</svg>
