<svg width="348" height="394" viewBox="0 0 348 394" fill="none" xmlns="http://www.w3.org/2000/svg">
<path d="M0.555814 72.4985C4.04427 161.852 6.36273 210.532 13.9111 284.005C20.2964 312.101 27.0509 323.726 48.9687 331.656C136.256 356.572 197.488 376.52 268.496 393.52C297.407 392.827 307.714 385.295 316.909 368.44C332.621 308.992 335.56 243.9 346.958 161.114C348.486 129.187 342.166 116.22 316.909 102.594C224.375 63.7368 89.8692 10.635 89.8692 10.635C89.8692 10.635 64.1586 -1.73596 48.9687 1.43909C31.2034 7.01012 23.4748 13.1787 13.9111 25.6829C2.87779 40.437 -0.0119827 50.6962 0.555814 72.4985Z" fill="white"/>
</svg>
