<svg width="36" height="36" viewBox="0 0 36 36" fill="none" xmlns="http://www.w3.org/2000/svg">
<g clip-path="url(#clip0_148_110)">
<path d="M30.373 35.1836H6.44727V1.6875H30.373V35.1836ZM7.88281 33.748H29.04V3.12305H7.88281V33.748ZM27.0918 13.5137H9.72852V5.44727H27.0918V13.5137ZM11.1299 12.0781H25.7588V6.88281H11.1299V12.0781ZM10.4463 17.2734H13.5566V18.709H10.4463V17.2734ZM16.8379 17.2734H19.9824V18.709H16.8379V17.2734ZM23.2637 17.2734H26.374V18.709H23.2637V17.2734ZM10.4463 21.4092H13.5566V22.8447H10.4463V21.4092ZM16.8379 21.4092H19.9824V22.8447H16.8379V21.4092ZM23.2637 21.4092H26.374V22.8447H23.2637V21.4092ZM10.4463 25.6133H13.5566V27.0488H10.4463V25.6133ZM16.8379 25.6133H19.9824V27.0488H16.8379V25.6133ZM10.4463 29.8174H13.5566V31.2529H10.4463V29.8174ZM16.8379 29.8174H19.9824V31.2529H16.8379V29.8174ZM24.1865 25.3398H25.5879V31.2529H24.1865V25.3398Z" fill="#6E6CEE"/>
</g>
<defs>
<clipPath id="clip0_148_110">
<rect width="35" height="35" fill="white" transform="matrix(1 0 0 -1 0.910156 35.4922)"/>
</clipPath>
</defs>
</svg>
