<svg width="36" height="36" viewBox="0 0 36 36" fill="none" xmlns="http://www.w3.org/2000/svg">
<g clip-path="url(#clip0_148_130)">
<path d="M23.8789 23.4502C23.4688 23.4502 23.1156 23.3192 22.8193 23.0571C22.5231 22.7951 22.375 22.4932 22.375 22.1514C22.375 21.7868 22.5231 21.4792 22.8193 21.2285C23.1156 20.9779 23.4688 20.8525 23.8789 20.8525C24.2891 20.8525 24.6423 20.9779 24.9385 21.2285C25.2347 21.4792 25.3828 21.7868 25.3828 22.1514C25.3828 22.3337 25.4512 22.4932 25.5879 22.6299C25.7246 22.7666 25.8841 22.835 26.0664 22.835C26.2487 22.835 26.4082 22.7666 26.5449 22.6299C26.6816 22.4932 26.75 22.3337 26.75 22.1514C26.75 21.5133 26.5392 20.9551 26.1177 20.4766C25.6961 19.998 25.1777 19.6904 24.5625 19.5537V19.1777C24.5625 18.9954 24.4941 18.8359 24.3574 18.6992C24.2207 18.5625 24.0612 18.4941 23.8789 18.4941C23.6966 18.4941 23.5371 18.5625 23.4004 18.6992C23.2637 18.8359 23.1953 18.9954 23.1953 19.1777V19.5537C22.5801 19.6904 22.0617 19.998 21.6401 20.4766C21.2186 20.9551 21.0078 21.5133 21.0078 22.1514C21.0078 22.8805 21.2869 23.5072 21.8452 24.0312C22.4035 24.5553 23.0814 24.8174 23.8789 24.8174C24.2891 24.8174 24.6423 24.9427 24.9385 25.1934C25.2347 25.444 25.3828 25.7516 25.3828 26.1162C25.3828 26.458 25.2347 26.7599 24.9385 27.022C24.6423 27.284 24.2891 27.415 23.8789 27.415C23.4688 27.415 23.1156 27.284 22.8193 27.022C22.5231 26.7599 22.375 26.458 22.375 26.1162C22.375 25.9111 22.3066 25.7459 22.1699 25.6206C22.0332 25.4953 21.8737 25.4326 21.6914 25.4326C21.5091 25.4326 21.3496 25.4953 21.2129 25.6206C21.0762 25.7459 21.0078 25.9111 21.0078 26.1162C21.0078 26.7314 21.2186 27.2783 21.6401 27.7568C22.0617 28.2354 22.5801 28.543 23.1953 28.6797V28.9873C23.1953 29.1696 23.2637 29.3291 23.4004 29.4658C23.5371 29.6025 23.6966 29.6709 23.8789 29.6709C24.0612 29.6709 24.2207 29.6025 24.3574 29.4658C24.4941 29.3291 24.5625 29.1696 24.5625 28.9873V28.6797C25.1777 28.543 25.6961 28.2354 26.1177 27.7568C26.5392 27.2783 26.75 26.7314 26.75 26.1162C26.75 25.3643 26.4709 24.7319 25.9126 24.2192C25.3543 23.7065 24.6764 23.4502 23.8789 23.4502ZM31.3643 19.3828C30.9085 18.6764 30.373 18.0498 29.7578 17.5029C29.1426 16.9561 28.4704 16.5003 27.7412 16.1357C27.5589 16.0674 27.3766 16.0617 27.1943 16.1187C27.012 16.1756 26.8867 16.2952 26.8184 16.4775C26.7272 16.637 26.7158 16.8079 26.7842 16.9902C26.8525 17.1725 26.9665 17.2979 27.126 17.3662C28.4248 18.0042 29.4616 18.9385 30.2363 20.1689C31.0111 21.3994 31.3984 22.7324 31.3984 24.168C31.3984 24.7832 31.3244 25.387 31.1763 25.9795C31.0282 26.5719 30.806 27.1416 30.5098 27.6885C30.4414 27.848 30.43 28.0189 30.4756 28.2012C30.5212 28.3835 30.6351 28.5202 30.8174 28.6113C30.863 28.6341 30.9142 28.6512 30.9712 28.6626C31.0282 28.674 31.0794 28.6797 31.125 28.6797C31.2389 28.6797 31.3529 28.6512 31.4668 28.5942C31.5807 28.5373 31.6719 28.4518 31.7402 28.3379C32.0592 27.6999 32.3099 27.0277 32.4922 26.3213C32.6745 25.6149 32.7656 24.8971 32.7656 24.168C32.7656 23.3021 32.646 22.4647 32.4067 21.6558C32.1675 20.8468 31.82 20.0892 31.3643 19.3828ZM24.9385 15.2812H24.9043C24.722 15.2812 24.5625 15.3496 24.4258 15.4863C24.2891 15.623 24.2207 15.7826 24.2207 15.9648C24.2207 16.1471 24.2891 16.3066 24.4258 16.4434C24.5625 16.5801 24.722 16.6484 24.9043 16.6484H24.9385C25.1208 16.6484 25.2803 16.5801 25.417 16.4434C25.5537 16.3066 25.6221 16.1471 25.6221 15.9648C25.6221 15.7826 25.5594 15.623 25.4341 15.4863C25.3088 15.3496 25.1436 15.2812 24.9385 15.2812ZM20.6318 30.9355C19.333 30.3203 18.2962 29.3975 17.5215 28.167C16.7467 26.9365 16.3594 25.6035 16.3594 24.168C16.3594 23.5527 16.4334 22.9432 16.5815 22.3394C16.7297 21.7355 16.9518 21.1715 17.248 20.6475C17.3164 20.4652 17.3278 20.2886 17.2822 20.1177C17.2367 19.9468 17.1227 19.8158 16.9404 19.7246C16.7809 19.6335 16.61 19.6164 16.4277 19.6733C16.2454 19.7303 16.1087 19.8385 16.0176 19.998C15.6986 20.6361 15.4479 21.3083 15.2656 22.0146C15.0833 22.721 14.9922 23.4388 14.9922 24.168C14.9922 25.0111 15.1118 25.8428 15.3511 26.6631C15.5903 27.4834 15.9378 28.2467 16.3936 28.9531C16.8493 29.6595 17.3848 30.2804 18 30.8159C18.6152 31.3514 19.2874 31.8014 20.0166 32.166C20.0622 32.1888 20.1134 32.2059 20.1704 32.2173C20.2274 32.2287 20.2786 32.2344 20.3242 32.2344C20.4609 32.2344 20.5806 32.2002 20.6831 32.1318C20.7856 32.0635 20.8711 31.9723 20.9395 31.8584C21.0306 31.6761 21.042 31.4995 20.9736 31.3286C20.9053 31.1577 20.7913 31.0267 20.6318 30.9355ZM22.8535 31.6875H22.8193C22.637 31.6875 22.4775 31.7502 22.3408 31.8755C22.2041 32.0008 22.1357 32.166 22.1357 32.3711C22.1357 32.5534 22.1984 32.7129 22.3237 32.8496C22.4491 32.9863 22.6143 33.0547 22.8193 33.0547H22.8535C23.0358 33.0547 23.1953 32.9863 23.332 32.8496C23.4688 32.7129 23.5371 32.5534 23.5371 32.3711C23.5371 32.1888 23.4688 32.0293 23.332 31.8926C23.1953 31.7559 23.0358 31.6875 22.8535 31.6875ZM26.9893 12.957C26.9437 12.8659 26.8981 12.7747 26.8525 12.6836C26.807 12.5924 26.75 12.5013 26.6816 12.4102H28.459C29.3249 12.4102 30.0654 12.1025 30.6807 11.4873C31.2959 10.8721 31.6035 10.1315 31.6035 9.26562C31.6035 8.39974 31.2959 7.65918 30.6807 7.04395C30.0654 6.42871 29.3249 6.12109 28.459 6.12109H22.9902C23.1497 5.87044 23.2808 5.59131 23.3833 5.28369C23.4858 4.97607 23.5371 4.66276 23.5371 4.34375C23.5371 3.47786 23.2295 2.7373 22.6143 2.12207C21.999 1.50684 21.2585 1.19922 20.3926 1.19922H3.64453C2.77865 1.19922 2.03809 1.50684 1.42285 2.12207C0.807617 2.7373 0.5 3.47786 0.5 4.34375C0.5 5.20963 0.807617 5.9502 1.42285 6.56543C2.03809 7.18066 2.77865 7.48828 3.64453 7.48828H9.11328C8.95378 7.73893 8.82275 8.01237 8.72021 8.30859C8.61768 8.60482 8.56641 8.92383 8.56641 9.26562C8.56641 9.58463 8.61768 9.89795 8.72021 10.2056C8.82275 10.5132 8.95378 10.7923 9.11328 11.043H7.33594C6.47005 11.043 5.72949 11.3506 5.11426 11.9658C4.49902 12.5811 4.19141 13.3216 4.19141 14.1875C4.19141 14.6888 4.29964 15.1502 4.51611 15.5718C4.73258 15.9933 5.02311 16.3522 5.3877 16.6484C5.02311 16.9219 4.73258 17.2751 4.51611 17.708C4.29964 18.141 4.19141 18.6081 4.19141 19.1094C4.19141 19.6107 4.29964 20.0721 4.51611 20.4937C4.73258 20.9152 5.02311 21.2741 5.3877 21.5703C5.02311 21.8438 4.73258 22.1969 4.51611 22.6299C4.29964 23.0628 4.19141 23.5299 4.19141 24.0312C4.19141 24.5326 4.29964 24.994 4.51611 25.4155C4.73258 25.8371 5.02311 26.196 5.3877 26.4922C5.02311 26.7656 4.73258 27.1188 4.51611 27.5518C4.29964 27.9847 4.19141 28.4518 4.19141 28.9531C4.19141 29.819 4.49902 30.5596 5.11426 31.1748C5.72949 31.79 6.47005 32.0977 7.33594 32.0977H15.4023C16.4505 33.237 17.7095 34.137 19.1792 34.7979C20.6489 35.4587 22.2155 35.7891 23.8789 35.7891C25.474 35.7891 26.9779 35.4814 28.3906 34.8662C29.8034 34.251 31.0396 33.4193 32.0991 32.3711C33.1587 31.3229 33.9847 30.0924 34.5771 28.6797C35.1924 27.2669 35.5 25.763 35.5 24.168C35.5 22.8236 35.2835 21.5475 34.8506 20.3398C34.4404 19.1322 33.8537 18.0384 33.0903 17.0586C32.327 16.0788 31.4212 15.2357 30.373 14.5293C29.3477 13.8229 28.2197 13.2988 26.9893 12.957ZM28.459 7.48828C28.9375 7.48828 29.3534 7.65918 29.7065 8.00098C30.0597 8.34277 30.2363 8.76432 30.2363 9.26562C30.2363 9.74414 30.0597 10.16 29.7065 10.5132C29.3534 10.8664 28.9375 11.043 28.459 11.043H11.7109C11.2324 11.043 10.8166 10.8664 10.4634 10.5132C10.1102 10.16 9.93359 9.74414 9.93359 9.26562C9.93359 8.76432 10.1102 8.34277 10.4634 8.00098C10.8166 7.65918 11.2324 7.48828 11.7109 7.48828H28.459ZM3.64453 6.12109C3.16602 6.12109 2.75016 5.9445 2.39697 5.59131C2.04378 5.23812 1.86719 4.82227 1.86719 4.34375C1.86719 3.84245 2.04378 3.4209 2.39697 3.0791C2.75016 2.7373 3.16602 2.56641 3.64453 2.56641H20.3926C20.8711 2.56641 21.2869 2.7373 21.6401 3.0791C21.9933 3.4209 22.1699 3.84245 22.1699 4.34375C22.1699 4.82227 21.9933 5.23812 21.6401 5.59131C21.2869 5.9445 20.8711 6.12109 20.3926 6.12109H3.64453ZM7.33594 12.4102H24.084C24.2207 12.4102 24.3517 12.4215 24.4771 12.4443C24.6024 12.4671 24.7334 12.5127 24.8701 12.5811C24.7106 12.5583 24.5454 12.5469 24.3745 12.5469C24.2036 12.5469 24.0384 12.5469 23.8789 12.5469C22.2839 12.5469 20.7799 12.8488 19.3672 13.4526C17.9544 14.0565 16.7126 14.8939 15.6416 15.9648H7.33594C6.85742 15.9648 6.44157 15.7882 6.08838 15.4351C5.73519 15.0819 5.55859 14.666 5.55859 14.1875C5.55859 13.6862 5.73519 13.2646 6.08838 12.9229C6.44157 12.5811 6.85742 12.4102 7.33594 12.4102ZM7.33594 17.332H14.4795C14.0921 17.8561 13.7503 18.4144 13.4541 19.0068C13.1579 19.5993 12.9186 20.2259 12.7363 20.8867H7.33594C6.85742 20.8867 6.44157 20.7101 6.08838 20.3569C5.73519 20.0037 5.55859 19.5879 5.55859 19.1094C5.55859 18.6081 5.73519 18.1865 6.08838 17.8447C6.44157 17.5029 6.85742 17.332 7.33594 17.332ZM7.33594 22.2539H12.4287C12.3604 22.5501 12.3148 22.8634 12.292 23.1938C12.2692 23.5243 12.2578 23.849 12.2578 24.168C12.2578 24.4414 12.2692 24.7148 12.292 24.9883C12.3148 25.2617 12.3376 25.5352 12.3604 25.8086H7.33594C6.85742 25.8086 6.44157 25.632 6.08838 25.2788C5.73519 24.9256 5.55859 24.5098 5.55859 24.0312C5.55859 23.5299 5.73519 23.1084 6.08838 22.7666C6.44157 22.4248 6.85742 22.2539 7.33594 22.2539ZM7.33594 30.7305C6.85742 30.7305 6.44157 30.5539 6.08838 30.2007C5.73519 29.8475 5.55859 29.4316 5.55859 28.9531C5.55859 28.4518 5.73519 28.0303 6.08838 27.6885C6.44157 27.3467 6.85742 27.1758 7.33594 27.1758H12.668C12.8275 27.8138 13.0439 28.429 13.3174 29.0215C13.5908 29.6139 13.9212 30.1836 14.3086 30.7305H7.33594ZM23.8789 34.4219C22.4661 34.4219 21.1331 34.1484 19.8799 33.6016C18.6494 33.0775 17.5671 32.3483 16.6328 31.4141C15.6986 30.4798 14.9694 29.3861 14.4453 28.1328C13.8984 26.9023 13.625 25.5807 13.625 24.168C13.625 22.7552 13.8984 21.4222 14.4453 20.1689C14.9694 18.9385 15.6986 17.8561 16.6328 16.9219C17.5671 15.9876 18.6494 15.2471 19.8799 14.7002C21.1331 14.1761 22.4661 13.9141 23.8789 13.9141C25.2917 13.9141 26.6247 14.1761 27.8779 14.7002C29.1084 15.2471 30.1908 15.9876 31.125 16.9219C32.0592 17.8561 32.7884 18.9385 33.3125 20.1689C33.8594 21.4222 34.1328 22.7552 34.1328 24.168C34.1328 25.5807 33.8594 26.9023 33.3125 28.1328C32.7884 29.3861 32.0592 30.4798 31.125 31.4141C30.1908 32.3483 29.1084 33.0775 27.8779 33.6016C26.6247 34.1484 25.2917 34.4219 23.8789 34.4219Z" fill="#6E6CEE"/>
</g>
<defs>
<clipPath id="clip0_148_130">
<rect width="35" height="35" fill="white" transform="matrix(1 0 0 -1 0.5 35.5508)"/>
</clipPath>
</defs>
</svg>
