<svg width="36" height="36" viewBox="0 0 36 36" fill="none" xmlns="http://www.w3.org/2000/svg">
<g clip-path="url(#clip0_148_140)">
<path d="M18.8545 19.6572C18.8317 19.6572 18.8032 19.6515 18.769 19.6401C18.7349 19.6287 18.7064 19.6344 18.6836 19.6572C18.3418 19.6117 18.0627 19.4635 17.8462 19.2129C17.6297 18.9622 17.5215 18.6774 17.5215 18.3584C17.5215 18.1989 17.4645 18.0622 17.3506 17.9482C17.2367 17.8343 17.0999 17.7773 16.9404 17.7773C16.7809 17.7773 16.6442 17.8343 16.5303 17.9482C16.4163 18.0622 16.3594 18.1989 16.3594 18.3584C16.3594 18.9053 16.5303 19.4009 16.8721 19.8452C17.2139 20.2896 17.6468 20.5801 18.1709 20.7168V21.2979C18.1709 21.4574 18.2279 21.5941 18.3418 21.708C18.4557 21.8219 18.5924 21.8789 18.752 21.8789C18.9115 21.8789 19.0482 21.8219 19.1621 21.708C19.276 21.5941 19.333 21.4574 19.333 21.2979V20.751C19.9482 20.6143 20.4382 20.2952 20.8027 19.7939C21.1673 19.2926 21.3154 18.723 21.2471 18.085C21.1787 17.4697 20.9167 16.9513 20.4609 16.5298C20.0052 16.1082 19.4583 15.8975 18.8203 15.8975C18.4557 15.8975 18.1481 15.7721 17.8975 15.5215C17.6468 15.2708 17.5215 14.9632 17.5215 14.5986C17.5215 14.234 17.6468 13.9264 17.8975 13.6758C18.1481 13.4251 18.4557 13.2998 18.8203 13.2998C19.1849 13.2998 19.4925 13.4251 19.7432 13.6758C19.9938 13.9264 20.1191 14.234 20.1191 14.5986C20.1191 14.7581 20.1761 14.8949 20.29 15.0088C20.404 15.1227 20.5407 15.1797 20.7002 15.1797C20.8597 15.1797 20.9964 15.1227 21.1104 15.0088C21.2243 14.8949 21.2812 14.7581 21.2812 14.5986C21.2812 14.0062 21.099 13.4878 20.7344 13.0435C20.3698 12.5991 19.9027 12.32 19.333 12.2061V11.6592C19.333 11.4997 19.276 11.3687 19.1621 11.2661C19.0482 11.1636 18.9115 11.1123 18.752 11.1123C18.5924 11.1123 18.4557 11.1636 18.3418 11.2661C18.2279 11.3687 18.1709 11.4997 18.1709 11.6592V12.2402C17.5785 12.3997 17.1113 12.7358 16.7695 13.2485C16.4277 13.7612 16.3024 14.3138 16.3936 14.9062C16.4619 15.5215 16.7297 16.0342 17.1968 16.4443C17.6639 16.8545 18.2051 17.0596 18.8203 17.0596C19.1849 17.0596 19.4925 17.1792 19.7432 17.4185C19.9938 17.6577 20.1191 17.9596 20.1191 18.3242C20.1191 18.6888 19.9995 18.9964 19.7603 19.2471C19.521 19.4977 19.2191 19.6344 18.8545 19.6572ZM10.4805 16.5127C10.4805 17.6748 10.7083 18.7572 11.1641 19.7598C11.597 20.7624 12.1895 21.6396 12.9414 22.3916C13.6934 23.1436 14.5706 23.7474 15.5732 24.2031C16.5986 24.6361 17.681 24.8525 18.8203 24.8525C19.9596 24.8525 21.042 24.6361 22.0674 24.2031C23.07 23.7474 23.9473 23.1436 24.6992 22.3916C25.4512 21.6396 26.0436 20.7624 26.4766 19.7598C26.9323 18.7572 27.1602 17.6748 27.1602 16.5127C27.1602 15.3734 26.9323 14.291 26.4766 13.2656C26.0436 12.263 25.4512 11.3857 24.6992 10.6338C23.9473 9.88184 23.07 9.28939 22.0674 8.85645C21.042 8.4235 19.9596 8.20703 18.8203 8.20703C17.681 8.20703 16.5986 8.4235 15.5732 8.85645C14.5706 9.28939 13.6934 9.88184 12.9414 10.6338C12.1895 11.3857 11.597 12.263 11.1641 13.2656C10.7083 14.291 10.4805 15.3734 10.4805 16.5127ZM18.8203 9.33496C19.8001 9.33496 20.7344 9.52865 21.623 9.91602C22.4889 10.2806 23.2466 10.7876 23.896 11.437C24.5454 12.0864 25.0524 12.8441 25.417 13.71C25.8044 14.5986 25.998 15.5329 25.998 16.5127C25.998 17.5153 25.8044 18.4495 25.417 19.3154C25.0524 20.1813 24.5454 20.939 23.896 21.5884C23.2466 22.2378 22.4889 22.7562 21.623 23.1436C20.7344 23.5081 19.8001 23.6904 18.8203 23.6904C17.8177 23.6904 16.8835 23.5081 16.0176 23.1436C15.1517 22.7562 14.394 22.2378 13.7446 21.5884C13.0952 20.939 12.5882 20.1813 12.2236 19.3154C11.8363 18.4495 11.6426 17.5153 11.6426 16.5127C11.6426 15.5329 11.8363 14.5986 12.2236 13.71C12.5882 12.8441 13.0952 12.0864 13.7446 11.437C14.394 10.7876 15.1517 10.2806 16.0176 9.91602C16.9062 9.52865 17.8405 9.33496 18.8203 9.33496ZM29.9629 26.2539L25.4854 28.373C25.1663 27.8034 24.7277 27.3477 24.1694 27.0059C23.6112 26.6641 23.0016 26.4818 22.3408 26.459L18.2051 26.3564C17.8861 26.3337 17.5671 26.2824 17.248 26.2026C16.929 26.1229 16.6214 26.0033 16.3252 25.8438L15.8809 25.6387C14.8099 25.069 13.6649 24.7842 12.4458 24.7842C11.2267 24.7842 10.0703 25.069 8.97656 25.6387L9.01074 24.6816C9.01074 24.5221 8.95947 24.3854 8.85693 24.2715C8.75439 24.1576 8.62337 24.1006 8.46387 24.1006L3.91797 23.9639C3.75846 23.9639 3.62174 24.0208 3.50781 24.1348C3.39388 24.2487 3.32552 24.3854 3.30273 24.5449L3.0293 34.5254C3.0293 34.6849 3.08626 34.8216 3.2002 34.9355C3.31413 35.0495 3.45085 35.1064 3.61035 35.1064L8.15625 35.2432C8.31576 35.2432 8.45247 35.1862 8.56641 35.0723C8.68034 34.9583 8.7373 34.8216 8.7373 34.6621L8.77148 34.1836L9.93359 33.5684C10.1615 33.4316 10.4064 33.3519 10.6685 33.3291C10.9305 33.3063 11.1868 33.3291 11.4375 33.3975L18.5127 35.3799C18.5127 35.3799 18.5184 35.3799 18.5298 35.3799C18.5412 35.3799 18.5469 35.3799 18.5469 35.3799C18.7975 35.4482 19.0539 35.4938 19.3159 35.5166C19.578 35.5394 19.8457 35.5508 20.1191 35.5508C20.666 35.5508 21.2072 35.4938 21.7427 35.3799C22.2782 35.266 22.7965 35.0951 23.2979 34.8672C23.3206 34.8444 23.3377 34.833 23.3491 34.833C23.3605 34.833 23.3662 34.8216 23.3662 34.7988L33.6201 28.2021C33.734 28.111 33.8138 27.9914 33.8594 27.8433C33.9049 27.6951 33.8822 27.5527 33.791 27.416C33.4264 26.7552 32.8739 26.3109 32.1333 26.083C31.3927 25.8551 30.6693 25.9121 29.9629 26.2539ZM4.19141 33.9785L4.46484 25.126L7.84863 25.2285L7.60938 34.0811L4.19141 33.9785ZM22.7852 33.8418C22.1699 34.1152 21.5205 34.2918 20.8369 34.3716C20.1533 34.4513 19.4811 34.4229 18.8203 34.2861L11.7793 32.3037C11.3691 32.1898 10.959 32.1556 10.5488 32.2012C10.1387 32.2467 9.7513 32.3607 9.38672 32.543L8.80566 32.8848L8.94238 27.0059C9.89941 26.3678 10.9533 26.0146 12.104 25.9463C13.2547 25.8779 14.3428 26.1172 15.3682 26.6641L15.7783 26.8691C16.1429 27.0742 16.5303 27.228 16.9404 27.3306C17.3506 27.4331 17.7607 27.4844 18.1709 27.4844L22.3066 27.6211C22.8991 27.6211 23.4175 27.8091 23.8618 28.1851C24.3062 28.561 24.5967 29.0339 24.7334 29.6035L18.5469 29.4326C18.3874 29.4326 18.2507 29.4896 18.1367 29.6035C18.0228 29.7174 17.9544 29.8542 17.9316 30.0137C17.9316 30.1732 17.9886 30.3099 18.1025 30.4238C18.2165 30.5378 18.3532 30.5947 18.5127 30.5947L25.3486 30.7656C25.5081 30.7656 25.6392 30.7144 25.7417 30.6118C25.8442 30.5093 25.9069 30.3783 25.9297 30.2188C25.9297 30.082 25.924 29.9567 25.9126 29.8428C25.9012 29.7288 25.8841 29.6035 25.8613 29.4668L30.4756 27.2793C30.8174 27.1198 31.1706 27.0628 31.5352 27.1084C31.8997 27.154 32.2074 27.3021 32.458 27.5527L22.7852 33.8418ZM19.4014 6.56641V1.13184C19.4014 0.972332 19.3444 0.835613 19.2305 0.72168C19.1165 0.607746 18.9798 0.550781 18.8203 0.550781C18.6608 0.550781 18.5241 0.607746 18.4102 0.72168C18.2962 0.835613 18.2393 0.972332 18.2393 1.13184V6.56641C18.2393 6.72591 18.2962 6.86263 18.4102 6.97656C18.5241 7.09049 18.6608 7.14746 18.8203 7.14746C18.9798 7.14746 19.1165 7.09049 19.2305 6.97656C19.3444 6.86263 19.4014 6.72591 19.4014 6.56641ZM23.708 6.56641V4.00293C23.708 3.84342 23.651 3.70671 23.5371 3.59277C23.4232 3.47884 23.2865 3.42188 23.127 3.42188C22.9674 3.42188 22.8307 3.47884 22.7168 3.59277C22.6029 3.70671 22.5459 3.84342 22.5459 4.00293V6.56641C22.5459 6.72591 22.6029 6.86263 22.7168 6.97656C22.8307 7.09049 22.9674 7.14746 23.127 7.14746C23.2865 7.14746 23.4232 7.09049 23.5371 6.97656C23.651 6.86263 23.708 6.72591 23.708 6.56641ZM15.0947 6.56641V4.00293C15.0947 3.84342 15.0378 3.70671 14.9238 3.59277C14.8099 3.47884 14.6732 3.42188 14.5137 3.42188C14.3542 3.42188 14.2174 3.47884 14.1035 3.59277C13.9896 3.70671 13.9326 3.84342 13.9326 4.00293V6.56641C13.9326 6.72591 13.9896 6.86263 14.1035 6.97656C14.2174 7.09049 14.3542 7.14746 14.5137 7.14746C14.6732 7.14746 14.8099 7.09049 14.9238 6.97656C15.0378 6.86263 15.0947 6.72591 15.0947 6.56641Z" fill="#6E6CEE"/>
</g>
<defs>
<clipPath id="clip0_148_140">
<rect width="35" height="35" fill="white" transform="matrix(1 0 0 -1 0.910156 35.5508)"/>
</clipPath>
</defs>
</svg>
