<svg width="17" height="16" viewBox="0 0 17 16" fill="none" xmlns="http://www.w3.org/2000/svg">
<g clip-path="url(#clip0_148_279)">
<path d="M14.4159 4.74247C14.426 4.88459 14.426 5.02675 14.426 5.16887C14.426 9.50387 11.1265 14.4988 5.09608 14.4988C3.2382 14.4988 1.51233 13.9607 0.0605469 13.0267C0.324516 13.0572 0.578297 13.0673 0.852422 13.0673C2.38539 13.0673 3.79658 12.5496 4.92348 11.6663C3.48186 11.6359 2.27373 10.6917 1.85748 9.39222C2.06055 9.42266 2.26358 9.44297 2.4768 9.44297C2.7712 9.44297 3.06564 9.40234 3.33973 9.33131C1.8372 9.02672 0.710266 7.70694 0.710266 6.11303V6.07244C1.1468 6.31609 1.65445 6.46837 2.19248 6.48866C1.30923 5.89981 0.730578 4.89475 0.730578 3.75769C0.730578 3.14856 0.892984 2.59019 1.17727 2.10287C2.79148 4.09272 5.21789 5.39219 7.93867 5.53434C7.88792 5.29069 7.85745 5.03691 7.85745 4.78309C7.85745 2.97597 9.31939 1.50391 11.1366 1.50391C12.0808 1.50391 12.9336 1.89984 13.5326 2.53944C14.2737 2.39731 14.9843 2.12319 15.6138 1.74756C15.3701 2.509 14.8524 3.14859 14.1722 3.55466C14.8321 3.48363 15.4717 3.30084 16.0605 3.04706C15.6139 3.69678 15.0555 4.27544 14.4159 4.74247Z" fill="white"/>
</g>
<defs>
<clipPath id="clip0_148_279">
<rect width="16" height="16" fill="white" transform="translate(0.0605469)"/>
</clipPath>
</defs>
</svg>
