<svg width="17" height="16" viewBox="0 0 17 16" fill="none" xmlns="http://www.w3.org/2000/svg">
<path d="M14.0605 1H2.05742C1.50742 1 1.06055 1.45313 1.06055 2.00938V13.9906C1.06055 14.5469 1.50742 15 2.05742 15H14.0605C14.6105 15 15.0605 14.5469 15.0605 13.9906V2.00938C15.0605 1.45313 14.6105 1 14.0605 1ZM5.2918 13H3.2168V6.31875H5.29492V13H5.2918ZM4.2543 5.40625C3.58867 5.40625 3.05117 4.86562 3.05117 4.20312C3.05117 3.54063 3.58867 3 4.2543 3C4.9168 3 5.45742 3.54063 5.45742 4.20312C5.45742 4.86875 4.91992 5.40625 4.2543 5.40625ZM13.0699 13H10.9949V9.75C10.9949 8.975 10.9793 7.97813 9.9168 7.97813C8.83555 7.97813 8.66992 8.82188 8.66992 9.69375V13H6.59492V6.31875H8.58555V7.23125H8.61367C8.8918 6.70625 9.56992 6.15312 10.5793 6.15312C12.6793 6.15312 13.0699 7.5375 13.0699 9.3375V13Z" fill="white"/>
</svg>
