<svg width="389" height="459" viewBox="0 0 389 459" fill="none" xmlns="http://www.w3.org/2000/svg">
<g filter="url(#filter0_d_148_315)">
<path d="M34.1202 84.7437C26.1534 173.81 22.2276 222.386 20.3181 296.221C23.0581 324.903 28.2705 337.297 48.9941 347.965C132.379 383.838 190.557 411.453 258.808 437.394C287.57 440.403 298.755 434.251 310.03 418.711C333.216 361.76 344.455 297.579 366.346 216.93C371.944 185.46 367.335 171.792 344.027 155.048C257.222 104.676 130.611 34.8096 130.611 34.8096C130.611 34.8096 106.694 19.2523 91.2227 20.4588C72.8909 23.7122 64.4369 28.8418 53.3527 40.0203C40.5232 53.2423 36.3452 63.0478 34.1202 84.7437Z" fill="#6D6CEE"/>
</g>
<defs>
<filter id="filter0_d_148_315" x="0.318359" y="0.390625" width="388.18" height="457.742" filterUnits="userSpaceOnUse" color-interpolation-filters="sRGB">
<feFlood flood-opacity="0" result="BackgroundImageFix"/>
<feColorMatrix in="SourceAlpha" type="matrix" values="0 0 0 0 0 0 0 0 0 0 0 0 0 0 0 0 0 0 127 0" result="hardAlpha"/>
<feOffset/>
<feGaussianBlur stdDeviation="10"/>
<feComposite in2="hardAlpha" operator="out"/>
<feColorMatrix type="matrix" values="0 0 0 0 0 0 0 0 0 0 0 0 0 0 0 0 0 0 0.1 0"/>
<feBlend mode="normal" in2="BackgroundImageFix" result="effect1_dropShadow_148_315"/>
<feBlend mode="normal" in="SourceGraphic" in2="effect1_dropShadow_148_315" result="shape"/>
</filter>
</defs>
</svg>
