<svg width="43" height="42" viewBox="0 0 43 42" fill="none" xmlns="http://www.w3.org/2000/svg">
<path d="M14.5637 19.5707C13.7145 19.5735 12.8804 19.7949 12.1415 20.2135C13.1818 17.521 14.907 15.1467 17.1466 13.3258C17.2748 13.2202 17.3809 13.0905 17.4589 12.944C17.5369 12.7974 17.5853 12.637 17.6013 12.4718C17.6172 12.3065 17.6005 12.1398 17.5521 11.981C17.5036 11.8222 17.4244 11.6746 17.3188 11.5464C17.2133 11.4183 17.0836 11.3122 16.937 11.2342C16.7905 11.1562 16.6301 11.1078 16.4648 11.0918C16.2996 11.0758 16.1328 11.0925 15.9741 11.141C15.8153 11.1895 15.6676 11.2687 15.5395 11.3742C10.9477 15.1051 8.9043 20.2709 8.9043 23.4737C8.91221 24.6062 9.24968 25.7118 9.87552 26.6557C10.5013 27.5995 11.3885 28.3407 12.4285 28.7888C13.1016 29.1148 13.8388 29.2874 14.5867 29.2939C15.245 29.3259 15.903 29.2238 16.5207 28.994C17.1384 28.7641 17.7029 28.4111 18.1802 27.9566C18.6574 27.502 19.0373 26.9552 19.2969 26.3494C19.5565 25.7436 19.6904 25.0914 19.6904 24.4323C19.6904 23.7732 19.5565 23.121 19.2969 22.5152C19.0373 21.9093 18.6574 21.3626 18.1802 20.908C17.7029 20.4534 17.1384 20.1004 16.5207 19.8706C15.903 19.6407 15.245 19.5387 14.5867 19.5707H14.5637Z" fill="#6D6CEE"/>
<path d="M27.3528 19.5672C26.5035 19.569 25.6691 19.7905 24.9306 20.21C25.9704 17.5203 27.6912 15.1469 29.9242 13.3223C30.064 13.2215 30.1817 13.0933 30.27 12.9453C30.3583 12.7974 30.4155 12.633 30.4379 12.4621C30.4603 12.2913 30.4475 12.1177 30.4003 11.952C30.3531 11.7863 30.2725 11.632 30.1634 11.4986C30.0544 11.3652 29.9192 11.2556 29.7661 11.1764C29.6131 11.0972 29.4455 11.0502 29.2736 11.0382C29.1017 11.0262 28.9292 11.0496 28.7667 11.1067C28.6042 11.1639 28.4551 11.2538 28.3286 11.3708C23.7367 15.1016 21.6934 20.2674 21.6934 23.4702C21.6988 24.5899 22.0264 25.6843 22.6371 26.6227C23.2478 27.5611 24.1157 28.3039 25.1372 28.7623C25.8274 29.098 26.5854 29.2708 27.3528 29.2674C28.0111 29.2994 28.6691 29.1974 29.2868 28.9675C29.9045 28.7376 30.469 28.3847 30.9463 27.9301C31.4235 27.4755 31.8034 26.9288 32.063 26.3229C32.3226 25.7171 32.4565 25.0649 32.4565 24.4058C32.4565 23.7467 32.3226 23.0945 32.063 22.4887C31.8034 21.8829 31.4235 21.3361 30.9463 20.8815C30.469 20.4269 29.9045 20.074 29.2868 19.8441C28.6691 19.6143 28.0111 19.5122 27.3528 19.5442V19.5672Z" fill="#6D6CEE"/>
</svg>
