<svg width="36" height="31" viewBox="0 0 36 31" fill="none" xmlns="http://www.w3.org/2000/svg">
<path d="M23.1915 0.318192C26.6681 0.411524 30.1331 0.516525 33.5865 0.63319C34.1231 0.656525 34.5081 0.796524 34.7415 1.05319C34.9748 1.30986 35.0681 1.71819 35.0215 2.27819L34.5315 6.79319C34.1815 9.82652 33.7731 12.5682 33.3065 15.0182C32.9331 16.8849 32.5715 18.4832 32.2215 19.8132C31.7781 21.5165 31.2765 23.0682 30.7165 24.4682C30.2265 25.7282 29.6431 26.8482 28.9665 27.8282C28.4065 28.6215 27.7706 29.199 27.059 29.5607C26.3473 29.9224 25.5131 30.0915 24.5565 30.0682C22.9231 30.0215 20.4731 29.9865 17.2065 29.9632L12.3065 29.8932C11.5365 29.8932 10.4048 29.8699 8.91145 29.8232L7.19645 29.7882C5.25978 29.7182 3.61478 28.8432 2.26145 27.1632C1.23478 25.8565 0.499785 24.3165 0.0564516 22.5432C-0.0602151 22.1232 0.00395161 21.7615 0.248952 21.4582C0.493952 21.1549 0.838118 21.0149 1.28145 21.0382C2.58812 21.0615 4.54812 21.1082 7.16145 21.1782L10.1715 21.2482L19.4115 21.4232L19.7615 21.4582C20.4148 21.3882 20.9165 21.7149 21.2665 22.4382C21.7798 23.5582 22.3748 24.5965 23.0515 25.5532C23.5415 26.2532 24.0198 26.7899 24.4865 27.1632C24.8831 27.4665 25.239 27.6124 25.554 27.6007C25.869 27.589 26.2073 27.4082 26.569 27.0582C26.9306 26.7082 27.2515 26.2765 27.5315 25.7632C27.7415 25.3899 27.9748 24.8999 28.2315 24.2932C28.7215 23.1032 29.1765 21.7849 29.5965 20.3382C29.8998 19.2415 30.2265 17.8882 30.5765 16.2782C31.0898 13.7582 31.5565 10.9815 31.9765 7.94819L32.4665 3.32819C32.4898 3.18819 32.4781 3.09486 32.4315 3.04819C32.3848 3.00152 32.2915 2.97819 32.1515 2.97819L25.3615 2.80319L14.0215 2.45319C13.8581 2.45319 13.7531 2.47652 13.7065 2.52319C13.6598 2.56986 13.6248 2.67486 13.6015 2.83819C13.3448 5.45152 13.0415 7.76152 12.6915 9.76819C12.2715 12.2415 11.7465 14.5165 11.1165 16.5932L10.2415 19.0432C10.1715 19.2065 10.0665 19.2882 9.92645 19.2882C9.45979 19.2649 8.75978 19.2532 7.82645 19.2532C7.68645 19.2532 7.61062 19.2299 7.59895 19.1832C7.58729 19.1365 7.60478 19.0549 7.65145 18.9382C8.30478 17.4682 8.87645 15.7882 9.36645 13.8982C9.69312 12.5915 10.0548 10.8532 10.4515 8.68319C10.7315 7.04986 11.0348 4.59986 11.3615 1.33319V1.19319C11.4081 0.796524 11.5423 0.499025 11.764 0.300692C11.9856 0.102358 12.2831 0.00319099 12.6565 0.00319099L20.8815 0.248192C21.2315 0.271524 21.7448 0.271524 22.4215 0.248192H23.1915V0.318192ZM21.5465 27.6182C20.8231 26.6849 20.0881 25.4832 19.3415 24.0132C19.2715 23.8732 19.1548 23.8149 18.9915 23.8382L9.05145 23.5932L3.52145 23.4882C3.19478 23.4649 3.01395 23.4765 2.97895 23.5232C2.94395 23.5699 2.99645 23.7449 3.13645 24.0482C3.69645 25.1449 4.31479 25.9499 4.99145 26.4632C5.80812 27.1165 6.78812 27.4432 7.93145 27.4432C9.98479 27.4432 13.0648 27.4782 17.1715 27.5482L20.2865 27.6182H21.5465ZM22.3865 8.43819C21.8031 8.41486 20.9398 8.39153 19.7965 8.36819L17.3115 8.29819L16.8215 8.22819C16.6348 8.20486 16.4831 8.12902 16.3665 8.00069C16.2498 7.87236 16.2031 7.71486 16.2265 7.52819C16.2265 7.13153 16.4365 6.89819 16.8565 6.82819H17.3115C21.9315 7.01486 25.3965 7.14319 27.7065 7.21319C27.9398 7.23652 28.1265 7.31236 28.2665 7.44069C28.4065 7.56903 28.4706 7.73819 28.459 7.94819C28.4473 8.15819 28.3715 8.32736 28.2315 8.45569C28.0915 8.58402 27.9048 8.63652 27.6715 8.61319L22.3865 8.47319V8.43819ZM24.9415 13.4782C21.0681 13.3382 18.1748 13.2332 16.2615 13.1632C16.0048 13.1632 15.8065 13.1107 15.6665 13.0057C15.5265 12.9007 15.4448 12.7549 15.4215 12.5682C15.3515 12.2415 15.4915 11.9849 15.8415 11.7982C15.9115 11.7749 16.0281 11.7632 16.1915 11.7632L20.9165 11.9032C23.2265 11.9965 24.9531 12.0549 26.0965 12.0782H26.2015C26.4815 12.1249 26.6681 12.2065 26.7615 12.3232C26.9481 12.5099 27.0065 12.7549 26.9365 13.0582C26.7965 13.3382 26.5515 13.5015 26.2015 13.5482L25.4315 13.5132C25.1048 13.5132 24.9415 13.5015 24.9415 13.4782ZM20.0765 18.3432C17.6498 18.2032 15.8415 18.0982 14.6515 18.0282C14.3481 18.0282 14.1731 17.8299 14.1265 17.4332C14.1031 17.1065 14.1965 16.8499 14.4065 16.6632C14.4298 16.6399 14.4998 16.6282 14.6165 16.6282L17.6265 16.7682C19.0498 16.8615 20.1115 16.9199 20.8115 16.9432H20.8815C21.0215 16.9899 21.1265 17.0715 21.1965 17.1882C21.3365 17.3982 21.3715 17.6432 21.3015 17.9232C21.2315 18.2032 21.0915 18.3665 20.8815 18.4132L20.3915 18.3782C20.1815 18.3782 20.0765 18.3665 20.0765 18.3432Z" fill="#6E6CEE"/>
</svg>
