<svg width="340" height="55" viewBox="0 0 340 55" fill="none" xmlns="http://www.w3.org/2000/svg">
<path d="M167.196 27.292L172.651 10.1133C171.599 9.73047 170.514 9.43538 169.397 9.22803C168.281 9.02067 167.132 8.91699 165.952 8.91699C163.209 8.91699 160.625 9.44336 158.2 10.4961C155.808 11.5488 153.71 12.9764 151.908 14.7788C150.105 16.5812 148.694 18.7106 147.673 21.167C146.62 23.5915 146.094 26.1914 146.094 28.9668C146.094 31.7103 146.62 34.3102 147.673 36.7666C148.694 39.1911 150.105 41.3125 151.908 43.1309C153.71 44.9492 155.808 46.3688 158.2 47.3896C160.625 48.4424 163.209 48.9688 165.952 48.9688C168.696 48.9688 171.264 48.4424 173.656 47.3896C176.081 46.3688 178.186 44.9492 179.973 43.1309C181.759 41.3125 183.179 39.1911 184.231 36.7666C185.252 34.3102 185.763 31.7103 185.763 28.9668C185.763 27.946 185.691 26.9491 185.547 25.9761C185.404 25.0031 185.204 24.07 184.949 23.1768L167.196 27.292ZM165.952 47.2461C163.432 47.2461 161.071 46.7676 158.87 45.8105C156.701 44.8535 154.795 43.5456 153.152 41.8867C151.509 40.2279 150.209 38.2979 149.252 36.0967C148.295 33.8636 147.816 31.487 147.816 28.9668C147.816 26.4466 148.295 24.07 149.252 21.8369C150.209 19.6038 151.501 17.6659 153.128 16.0229C154.755 14.38 156.669 13.0641 158.87 12.0752C161.071 11.1182 163.432 10.6396 165.952 10.6396C166.718 10.6396 167.467 10.6875 168.201 10.7832C168.935 10.8789 169.653 11.0225 170.354 11.2139L164.277 30.2588L183.753 25.7129C183.849 26.2552 183.92 26.7896 183.968 27.3159C184.016 27.8423 184.04 28.3926 184.04 28.9668C184.04 31.487 183.577 33.8636 182.652 36.0967C181.695 38.2979 180.395 40.2279 178.752 41.8867C177.11 43.5456 175.188 44.8535 172.986 45.8105C170.785 46.7676 168.44 47.2461 165.952 47.2461ZM192.988 17.9131C192.223 14.4678 191.026 11.7083 189.399 9.63477C187.772 7.5612 186.138 5.96614 184.495 4.84961C182.852 3.73307 181.424 2.99935 180.212 2.64844C178.968 2.29753 178.346 2.12207 178.346 2.12207L172.269 22.6504L192.988 17.9131ZM179.638 4.51465C181.297 5.08887 182.748 5.83854 183.992 6.76367C185.204 7.6888 186.249 8.69368 187.126 9.77832C188.004 10.863 188.729 11.9795 189.304 13.1279C189.846 14.3083 190.293 15.4248 190.644 16.4775L175.044 20.0186L179.638 4.51465Z" fill="#6D6CEE"/>
</svg>
