<svg width="346" height="76" viewBox="0 0 346 76" fill="none" xmlns="http://www.w3.org/2000/svg">
<rect x="138" width="70" height="70" rx="35" fill="white"/>
<g clip-path="url(#clip0_148_37)">
<path d="M189.601 24.78C186.871 22.4 184.141 20.02 181.411 17.64L181.306 17.57C181.259 17.5233 181.23 17.5 181.218 17.5C181.206 17.5 181.154 17.535 181.061 17.605L173.256 24.43L172.766 24.885V24.92H177.176C177.269 24.92 177.327 24.9317 177.351 24.955C177.374 24.9783 177.374 25.025 177.351 25.095C177.187 25.9583 177.001 26.7167 176.791 27.37C175.904 30.3333 174.387 32.9233 172.241 35.14C170.024 37.4033 167.457 38.99 164.541 39.9C162.511 40.53 160.457 40.775 158.381 40.635C158.007 40.6117 157.471 40.5533 156.771 40.46C156.631 40.4367 156.514 40.4717 156.421 40.565C156.327 40.6583 156.292 40.7633 156.316 40.88C156.386 41.0433 156.502 41.1367 156.666 41.16C160.282 42.42 164.016 42.7467 167.866 42.14C171.249 41.6033 174.271 40.4367 176.931 38.64C181.831 35.3033 184.782 30.7883 185.786 25.095C185.809 24.9783 185.891 24.92 186.031 24.92H189.531C189.601 24.92 189.647 24.9083 189.671 24.885C189.694 24.8617 189.682 24.8383 189.636 24.815L189.601 24.78ZM186.836 39.235V26.075C186.836 26.0283 186.818 26.005 186.783 26.005C186.748 26.005 186.731 26.0283 186.731 26.075L186.696 26.145C185.996 29.4117 184.619 32.3283 182.566 34.895C182.519 34.965 182.496 35.0583 182.496 35.175V52.325C182.496 52.395 182.507 52.4417 182.531 52.465C182.554 52.4883 182.601 52.5 182.671 52.5H186.696C186.766 52.5 186.806 52.4942 186.818 52.4825C186.83 52.4708 186.836 52.43 186.836 52.36V39.235ZM180.326 37.38C180.279 37.4033 180.232 37.4383 180.186 37.485C178.809 38.6983 177.432 39.6783 176.056 40.425C175.986 40.4717 175.951 40.5533 175.951 40.67V52.325C175.951 52.395 175.962 52.4417 175.986 52.465C176.009 52.4883 176.056 52.5 176.126 52.5H180.081C180.174 52.5 180.238 52.4825 180.273 52.4475C180.308 52.4125 180.326 52.3483 180.326 52.255C180.302 49.0117 180.291 44.135 180.291 37.625V37.38H180.326ZM173.781 41.79C173.781 41.6733 173.775 41.6092 173.763 41.5975C173.751 41.5858 173.687 41.6033 173.571 41.65C172.287 42.21 170.957 42.63 169.581 42.91C169.464 42.9333 169.406 43.015 169.406 43.155V52.29C169.406 52.3833 169.417 52.4417 169.441 52.465C169.464 52.4883 169.522 52.5 169.616 52.5H173.571C173.664 52.5 173.722 52.4883 173.746 52.465C173.769 52.4417 173.781 52.3833 173.781 52.29V41.79ZM160.516 43.225C159.116 43.015 157.774 42.6883 156.491 42.245C156.421 42.2217 156.374 42.2217 156.351 42.245C156.327 42.2683 156.316 42.315 156.316 42.385V52.29C156.316 52.3833 156.333 52.4417 156.368 52.465C156.403 52.4883 156.467 52.5 156.561 52.5H160.516C160.586 52.5 160.632 52.4883 160.656 52.465C160.679 52.4417 160.691 52.395 160.691 52.325V43.435C160.691 43.295 160.632 43.225 160.516 43.225ZM167.236 43.505C167.236 43.435 167.224 43.3883 167.201 43.365C167.177 43.3417 167.131 43.33 167.061 43.33C165.801 43.4933 164.459 43.54 163.036 43.47C162.966 43.47 162.919 43.4817 162.896 43.505C162.872 43.5283 162.861 43.5867 162.861 43.68V52.325C162.861 52.395 162.872 52.4417 162.896 52.465C162.919 52.4883 162.977 52.5 163.071 52.5H167.026C167.166 52.5 167.236 52.43 167.236 52.29V43.505Z" fill="#7C7BF1"/>
</g>
<defs>
<clipPath id="clip0_148_37">
<rect width="35.02" height="35" fill="white" transform="matrix(1 0 0 -1 155.5 52.5)"/>
</clipPath>
</defs>
</svg>
