<svg width="340" height="55" viewBox="0 0 340 55" fill="none" xmlns="http://www.w3.org/2000/svg">
<g clip-path="url(#clip0_148_85)">
<path d="M189.694 13.6553C188.259 13.6553 187.039 14.1657 186.034 15.1865C185.029 16.2074 184.526 17.4355 184.526 18.8711C184.526 19.3815 184.598 19.876 184.742 20.3545C184.885 20.833 185.085 21.2796 185.34 21.6943L179.741 27.3408C179.326 27.0537 178.88 26.8384 178.401 26.6948C177.923 26.5513 177.412 26.4795 176.87 26.4795C176.328 26.4795 175.809 26.5592 175.315 26.7188C174.82 26.8783 174.366 27.1016 173.951 27.3887L168.305 21.6943C168.56 21.2796 168.759 20.833 168.903 20.3545C169.046 19.876 169.118 19.3815 169.118 18.8711C169.118 17.4355 168.616 16.2074 167.611 15.1865C166.606 14.1657 165.386 13.6553 163.95 13.6553C162.515 13.6553 161.286 14.1657 160.266 15.1865C159.245 16.2074 158.734 17.4355 158.734 18.8711C158.734 19.3815 158.806 19.876 158.95 20.3545C159.093 20.833 159.293 21.2796 159.548 21.6943L153.949 27.3408C153.535 27.0537 153.088 26.8384 152.609 26.6948C152.131 26.5513 151.636 26.4795 151.126 26.4795C149.69 26.4795 148.462 26.9899 147.441 28.0107C146.421 29.0316 145.91 30.2598 145.91 31.6953C145.91 33.1309 146.421 34.3511 147.441 35.356C148.462 36.3608 149.69 36.8633 151.126 36.8633C152.562 36.8633 153.782 36.3608 154.787 35.356C155.792 34.3511 156.294 33.1309 156.294 31.6953C156.294 31.153 156.222 30.6426 156.079 30.1641C155.935 29.6855 155.736 29.2389 155.48 28.8242L161.079 23.2256C161.494 23.4808 161.94 23.6882 162.419 23.8477C162.897 24.0072 163.408 24.0869 163.95 24.0869C164.461 24.0869 164.955 24.0072 165.434 23.8477C165.912 23.6882 166.359 23.4808 166.773 23.2256L172.468 28.9199C172.213 29.3346 172.021 29.7733 171.894 30.2358C171.766 30.6984 171.702 31.1849 171.702 31.6953C171.702 33.1309 172.205 34.3511 173.209 35.356C174.214 36.3608 175.435 36.8633 176.87 36.8633C178.306 36.8633 179.534 36.3608 180.555 35.356C181.576 34.3511 182.086 33.1309 182.086 31.6953C182.086 31.153 182.014 30.6426 181.871 30.1641C181.727 29.6855 181.528 29.2389 181.272 28.8242L186.871 23.2256C187.286 23.4808 187.732 23.6882 188.211 23.8477C188.689 24.0072 189.184 24.0869 189.694 24.0869C191.13 24.0869 192.358 23.5765 193.379 22.5557C194.4 21.5348 194.91 20.3066 194.91 18.8711C194.91 17.4355 194.4 16.2074 193.379 15.1865C192.358 14.1657 191.13 13.6553 189.694 13.6553ZM151.126 34.71C150.265 34.71 149.539 34.4149 148.949 33.8247C148.359 33.2345 148.063 32.5247 148.063 31.6953C148.063 30.834 148.359 30.1082 148.949 29.5181C149.539 28.9279 150.265 28.6328 151.126 28.6328C151.955 28.6328 152.673 28.9279 153.279 29.5181C153.885 30.1082 154.188 30.834 154.188 31.6953C154.188 32.5247 153.885 33.2345 153.279 33.8247C152.673 34.4149 151.955 34.71 151.126 34.71ZM163.95 21.9336C163.089 21.9336 162.363 21.6305 161.773 21.0244C161.183 20.4183 160.888 19.7005 160.888 18.8711C160.888 18.0417 161.183 17.3239 161.773 16.7178C162.363 16.1117 163.089 15.8086 163.95 15.8086C164.78 15.8086 165.489 16.1117 166.08 16.7178C166.67 17.3239 166.965 18.0417 166.965 18.8711C166.965 19.7005 166.67 20.4183 166.08 21.0244C165.489 21.6305 164.78 21.9336 163.95 21.9336ZM176.87 34.71C176.041 34.71 175.331 34.4149 174.741 33.8247C174.151 33.2345 173.855 32.5247 173.855 31.6953C173.855 30.834 174.151 30.1082 174.741 29.5181C175.331 28.9279 176.041 28.6328 176.87 28.6328C177.731 28.6328 178.457 28.9279 179.047 29.5181C179.638 30.1082 179.933 30.834 179.933 31.6953C179.933 32.5247 179.638 33.2345 179.047 33.8247C178.457 34.4149 177.731 34.71 176.87 34.71ZM189.694 21.9336C188.865 21.9336 188.147 21.6305 187.541 21.0244C186.935 20.4183 186.632 19.7005 186.632 18.8711C186.632 18.0417 186.935 17.3239 187.541 16.7178C188.147 16.1117 188.865 15.8086 189.694 15.8086C190.556 15.8086 191.281 16.1117 191.872 16.7178C192.462 17.3239 192.757 18.0417 192.757 18.8711C192.757 19.7005 192.462 20.4183 191.872 21.0244C191.281 21.6305 190.556 21.9336 189.694 21.9336ZM162.85 26.8623C162.626 26.6709 162.363 26.5752 162.06 26.5752C161.757 26.5752 161.51 26.6709 161.318 26.8623L159.117 29.0635C158.894 29.2868 158.782 29.542 158.782 29.8291C158.782 30.1162 158.894 30.3714 159.117 30.5947C159.213 30.6904 159.333 30.7622 159.476 30.8101C159.62 30.8579 159.755 30.8818 159.883 30.8818C160.01 30.8818 160.146 30.8579 160.29 30.8101C160.433 30.7622 160.553 30.6904 160.648 30.5947L162.85 28.3936C163.041 28.1702 163.137 27.915 163.137 27.6279C163.137 27.3408 163.041 27.0856 162.85 26.8623ZM181.703 20.0195C181.48 19.7962 181.225 19.6846 180.938 19.6846C180.65 19.6846 180.395 19.7962 180.172 20.0195L177.971 22.1729C177.779 22.3962 177.684 22.6593 177.684 22.9624C177.684 23.2655 177.779 23.5127 177.971 23.7041C178.098 23.7998 178.226 23.8796 178.354 23.9434C178.481 24.0072 178.609 24.0391 178.736 24.0391C178.896 24.0391 179.039 24.0072 179.167 23.9434C179.295 23.8796 179.406 23.7998 179.502 23.7041L181.703 21.5029C181.926 21.3115 182.038 21.0643 182.038 20.7612C182.038 20.4582 181.926 20.2109 181.703 20.0195Z" fill="#6D6CEE"/>
</g>
<defs>
<clipPath id="clip0_148_85">
<rect width="49" height="49" fill="white" transform="matrix(1 0 0 -1 145.91 49.1602)"/>
</clipPath>
</defs>
</svg>
