<svg width="346" height="76" viewBox="0 0 346 76" fill="none" xmlns="http://www.w3.org/2000/svg">
<rect x="138.199" width="70" height="70" rx="35" fill="#6E6CEE"/>
<g clip-path="url(#clip0_148_45)">
<path d="M171.004 36.4693C170.958 36.3993 170.934 36.271 170.934 36.0843L173.629 21.9093C173.653 21.746 173.618 21.606 173.524 21.4893C173.431 21.3726 173.303 21.291 173.139 21.2443C172.486 21.151 171.739 21.1043 170.899 21.1043C168.076 21.1043 165.463 21.8276 163.059 23.2743C160.703 24.6976 158.871 26.611 157.564 29.0143C156.211 31.4876 155.604 34.1476 155.744 36.9943C155.861 39.5843 156.608 41.9876 157.984 44.2043C159.314 46.3743 161.064 48.101 163.234 49.3843C165.498 50.7143 167.924 51.4143 170.514 51.4843C172.684 51.5543 174.796 51.1576 176.849 50.2943C177.223 50.131 177.468 49.8626 177.584 49.4893C177.701 49.116 177.666 48.766 177.479 48.4393L171.004 36.4693ZM189.694 30.7993C189.601 30.5193 189.408 30.3268 189.117 30.2218C188.825 30.1168 188.539 30.1226 188.259 30.2393L176.499 35.8043C176.243 35.9443 176.068 36.1601 175.974 36.4518C175.881 36.7435 175.904 37.0176 176.044 37.2743L182.239 48.7193C182.379 48.976 182.601 49.1393 182.904 49.2093C183.208 49.2793 183.488 49.2326 183.744 49.0693C185.891 47.6926 187.583 45.896 188.819 43.6793C190.079 41.3926 190.709 38.931 190.709 36.2943C190.709 34.381 190.371 32.5493 189.694 30.7993ZM175.344 32.6193L186.894 27.1243C187.104 27.0076 187.244 26.8443 187.314 26.6343C187.384 26.4243 187.361 26.2143 187.244 26.0043C186.241 24.161 184.893 22.586 183.202 21.2793C181.51 19.9726 179.626 19.0626 177.549 18.5493C177.316 18.4793 177.106 18.5085 176.919 18.6368C176.733 18.7651 176.616 18.946 176.569 19.1793L174.189 31.7443C174.143 32.071 174.248 32.3335 174.504 32.5318C174.761 32.7301 175.041 32.7593 175.344 32.6193Z" fill="white"/>
</g>
<defs>
<clipPath id="clip0_148_45">
<rect width="35.02" height="35" fill="white" transform="matrix(1 0 0 -1 155.699 52.5)"/>
</clipPath>
</defs>
</svg>
