<svg width="104" height="104" viewBox="0 0 104 104" fill="none" xmlns="http://www.w3.org/2000/svg">
<path d="M22.2659 10.6666C50.5141 -9.55415 77.073 3.5538 86.8214 12.6354C62.714 -5.62938 35.9624 5.93533 25.6 14.0008C-3.68969 36.5079 3.78515 64.4469 11.1838 75.6031C26.1208 96.7384 48.7167 95.9043 58.1476 92.8454C58.1476 68.6617 73.256 62.266 85.7734 60.0755C99.9991 57.586 102.088 41.5339 101.523 35.4663C108.661 59.5383 99.3258 78.2095 86.8214 90.3686C50.0122 119.902 16.4339 94.1261 6.73834 78.0164C-10.7135 44.3828 9.81846 19.1026 22.2659 10.6666Z" fill="url(#paint0_linear_148_201)"/>
<path d="M29.0585 87.1631L20.1992 61.252L26.3912 58.3942L33.1548 72.9057C51.9784 63.8622 81.9603 52.5833 94.5983 48.0742L95.7732 50.3287C76.2637 56.0444 43.1678 77.2665 29.0585 87.1631Z" fill="white"/>
<path d="M38.6055 32.0703V70.3971L45.6866 67.444V32.0703H38.6055Z" fill="white"/>
<path d="M53.5508 22.543V64.2674L60.6636 61.0525V22.543H53.5508Z" fill="white"/>
<path d="M67.709 11.75V59.0631L74.8218 55.4176V11.75H67.709Z" fill="white"/>
<defs>
<linearGradient id="paint0_linear_148_201" x1="75.6375" y1="8.63703" x2="10.2247" y2="72.9067" gradientUnits="userSpaceOnUse">
<stop stop-color="#F7EC00"/>
<stop offset="0.0824055" stop-color="#FDF802"/>
<stop offset="0.288884" stop-color="#FED51B"/>
<stop offset="0.621822" stop-color="#DF8009"/>
<stop offset="0.814437" stop-color="#E87D04"/>
<stop offset="1" stop-color="#F9B378"/>
</linearGradient>
</defs>
</svg>
