<svg width="36" height="36" viewBox="0 0 36 36" fill="none" xmlns="http://www.w3.org/2000/svg">
<path d="M2.52539 4.02703V31.957H33.1504V4.02703H2.52539ZM13.4454 5.14703H22.1954V10.712H13.4454V5.14703ZM13.4454 11.832H22.1954V17.432H13.4454V11.832ZM12.3254 30.837H3.61039V25.272H12.3254V30.837ZM12.3254 24.152H3.61039V18.552H12.3254V24.152ZM12.3254 17.397H3.61039V11.832H12.3254V17.397ZM12.3254 10.712H3.61039V5.14703H12.3254V10.712ZM32.0304 30.837H29.8604V22.997H26.5704V30.837H24.3654V25.272H21.0754V30.837H18.9054V27.477H15.6154V30.837H13.4454V18.552H32.0304V30.837ZM32.0304 17.397H23.2804V11.832H32.0304V17.397ZM32.0304 10.712H23.2804V5.14703H32.0304V10.712Z" fill="#6D6CEE"/>
</svg>
