<svg width="42" height="36" viewBox="0 0 42 36" fill="none" xmlns="http://www.w3.org/2000/svg">
<g clip-path="url(#clip0_148_150)">
<path d="M5.2074 22.2549C5.13904 22.1865 5.05359 22.1353 4.95105 22.1011C4.84851 22.0669 4.75167 22.0498 4.66052 22.0498C4.54659 22.0498 4.44405 22.0669 4.35291 22.1011C4.26176 22.1353 4.18201 22.1865 4.11365 22.2549C4.04529 22.3232 3.99402 22.4087 3.95984 22.5112C3.92566 22.6138 3.90857 22.7106 3.90857 22.8018C3.90857 22.9157 3.92566 23.0182 3.95984 23.1094C3.99402 23.2005 4.04529 23.2803 4.11365 23.3486C4.18201 23.417 4.26176 23.4683 4.35291 23.5024C4.44405 23.5366 4.54659 23.5537 4.66052 23.5537C4.75167 23.5537 4.84851 23.5366 4.95105 23.5024C5.05359 23.4683 5.13904 23.417 5.2074 23.3486C5.27576 23.2803 5.32703 23.2005 5.36121 23.1094C5.39539 23.0182 5.41248 22.9157 5.41248 22.8018C5.45805 22.7106 5.46375 22.6138 5.42957 22.5112C5.39539 22.4087 5.32133 22.3232 5.2074 22.2549ZM41.1644 24.9551C41.0961 24.75 40.9707 24.5848 40.7885 24.4595C40.6062 24.3341 40.4125 24.3057 40.2074 24.374L34.8412 25.8438L31.4574 13.2314L36.8236 11.7959C37.0287 11.7275 37.1882 11.5965 37.3021 11.4028C37.4161 11.2091 37.4388 11.0098 37.3705 10.8047C37.3021 10.5996 37.1768 10.4401 36.9945 10.3262C36.8122 10.2122 36.6185 10.1895 36.4135 10.2578L30.2953 11.9326C30.1586 11.9554 30.0389 12.0124 29.9364 12.1035C29.8339 12.1947 29.7712 12.2972 29.7484 12.4111L28.2103 11.5225C27.7774 11.2262 27.2875 11.061 26.7406 11.0269C26.1937 10.9927 25.681 11.0553 25.2025 11.2148L23.6644 11.7275C23.1859 11.887 22.7302 12.1206 22.2972 12.4282C21.8643 12.7358 21.4997 13.0947 21.2035 13.5049L18.9818 12.2744C18.5489 12.001 18.076 11.8415 17.5634 11.7959C17.0507 11.7503 16.5437 11.8187 16.0424 12.001L11.7699 13.5049L11.9066 12.958C11.975 12.7529 11.9522 12.5592 11.8383 12.377C11.7243 12.1947 11.5534 12.0693 11.3256 12.001L5.27576 10.2578C5.07068 10.1895 4.87699 10.2122 4.6947 10.3262C4.51241 10.4401 4.38708 10.5996 4.31873 10.8047C4.25037 11.0098 4.27315 11.2091 4.38708 11.4028C4.50102 11.5965 4.66052 11.7275 4.8656 11.7959L10.2318 13.2314L9.89001 14.5303L6.84802 25.8438L1.48181 24.374C1.27673 24.3057 1.08305 24.3341 0.900757 24.4595C0.718465 24.5848 0.59314 24.75 0.52478 24.9551C0.456421 25.1602 0.479207 25.3538 0.59314 25.5361C0.707072 25.7184 0.866577 25.8438 1.07166 25.9121L7.224 27.5527C7.24679 27.5527 7.27527 27.5527 7.30945 27.5527C7.34363 27.5527 7.3835 27.5527 7.42908 27.5527C7.5658 27.5527 7.68542 27.5243 7.78796 27.4673C7.8905 27.4103 7.97595 27.3249 8.04431 27.2109L10.847 27.9629C10.7787 28.4186 10.8584 28.863 11.0863 29.2959C11.3142 29.7288 11.6332 30.0706 12.0433 30.3213C12.2028 30.4124 12.3851 30.4922 12.5902 30.5605C12.7953 30.6289 13.0004 30.6631 13.2054 30.6631C13.2738 30.6631 13.3536 30.6574 13.4447 30.646C13.5358 30.6346 13.6156 30.6175 13.684 30.5947C13.7979 30.8682 13.9403 31.1188 14.1112 31.3467C14.2821 31.5745 14.5043 31.7568 14.7777 31.8936C14.96 32.0075 15.148 32.0929 15.3417 32.1499C15.5354 32.2069 15.7461 32.2354 15.974 32.2354C16.0424 32.2354 16.1221 32.2354 16.2133 32.2354C16.3044 32.2354 16.3842 32.2126 16.4525 32.167C16.5437 32.4404 16.6804 32.6911 16.8627 32.9189C17.045 33.1468 17.2728 33.3405 17.5463 33.5C17.7058 33.5911 17.8881 33.6709 18.0931 33.7393C18.2982 33.8076 18.5033 33.8418 18.7084 33.8418C18.7767 33.8418 18.8565 33.8361 18.9476 33.8247C19.0388 33.8133 19.1185 33.7962 19.1869 33.7734C19.3008 34.0469 19.4432 34.2975 19.6141 34.5254C19.785 34.7533 20.0186 34.9355 20.3148 35.0723C20.4743 35.1634 20.6566 35.2432 20.8617 35.3115C21.0668 35.3799 21.2719 35.4141 21.4769 35.4141C21.8187 35.4141 22.1434 35.3457 22.451 35.209C22.7587 35.0723 23.0264 34.8672 23.2543 34.5938L23.3226 34.6621C23.5049 34.7533 23.6929 34.833 23.8866 34.9014C24.0803 34.9697 24.2797 35.0039 24.4847 35.0039C24.9177 35.0039 25.3221 34.9014 25.6981 34.6963C26.0741 34.4912 26.3646 34.2064 26.5697 33.8418C26.7064 33.5684 26.8033 33.2892 26.8602 33.0044C26.9172 32.7196 26.9115 32.4404 26.8431 32.167C27.1166 32.0758 27.3672 31.9391 27.5951 31.7568C27.823 31.5745 28.0052 31.3467 28.142 31.0732C28.2787 30.8226 28.3755 30.5549 28.4325 30.27C28.4895 29.9852 28.4838 29.7061 28.4154 29.4326C28.4838 29.387 28.5521 29.3586 28.6205 29.3472C28.6888 29.3358 28.7572 29.3187 28.8256 29.2959L33.6791 27.3477C33.7474 27.416 33.8272 27.4673 33.9183 27.5015C34.0095 27.5356 34.112 27.5527 34.226 27.5527C34.2487 27.5527 34.2772 27.5527 34.3114 27.5527C34.3456 27.5527 34.3855 27.5527 34.431 27.5527L40.5492 25.9121C40.7998 25.8665 40.9764 25.7469 41.079 25.5532C41.1815 25.3595 41.21 25.1602 41.1644 24.9551ZM14.9144 27.0742L13.9574 28.7148C13.8663 28.9427 13.7124 29.0737 13.496 29.1079C13.2795 29.1421 13.0687 29.1136 12.8636 29.0225C12.6586 28.9085 12.5332 28.7433 12.4877 28.5269C12.4421 28.3104 12.4763 28.0996 12.5902 27.8945L13.5472 26.2539C13.6156 26.1172 13.7124 26.0146 13.8378 25.9463C13.9631 25.8779 14.0941 25.8438 14.2308 25.8438C14.2992 25.8438 14.3676 25.8494 14.4359 25.8608C14.5043 25.8722 14.5726 25.9121 14.641 25.9805C14.7549 26.0488 14.8404 26.1172 14.8973 26.1855C14.9543 26.2539 14.9828 26.3451 14.9828 26.459C15.0284 26.5957 15.0398 26.7153 15.017 26.8179C14.9942 26.9204 14.96 27.0059 14.9144 27.0742ZM17.683 28.6465L16.726 30.3213C16.6576 30.4124 16.5835 30.4922 16.5038 30.5605C16.424 30.6289 16.3386 30.6631 16.2474 30.6631C16.1335 30.6859 16.0253 30.6859 15.9227 30.6631C15.8202 30.6403 15.712 30.6175 15.598 30.5947C15.5069 30.5264 15.4271 30.4523 15.3588 30.3726C15.2904 30.2928 15.2562 30.2074 15.2562 30.1162C15.2334 30.0023 15.2334 29.894 15.2562 29.7915C15.279 29.689 15.3018 29.5921 15.3246 29.501L16.3158 27.8262C16.3842 27.6895 16.481 27.5869 16.6063 27.5186C16.7316 27.4502 16.8627 27.416 16.9994 27.416C17.0677 27.416 17.1361 27.4217 17.2045 27.4331C17.2728 27.4445 17.3412 27.4844 17.4095 27.5527C17.5007 27.6211 17.5804 27.6951 17.6488 27.7749C17.7172 27.8547 17.7513 27.9401 17.7513 28.0312C17.7741 28.168 17.7741 28.2876 17.7513 28.3901C17.7286 28.4927 17.7058 28.5781 17.683 28.6465ZM20.4515 30.3213L19.4603 31.9619C19.3692 32.167 19.2154 32.2923 18.9989 32.3379C18.7824 32.3835 18.5717 32.3493 18.3666 32.2354C18.1615 32.1442 18.0362 31.9904 17.9906 31.7739C17.945 31.5575 17.9792 31.3467 18.0931 31.1416L19.0502 29.501C19.1185 29.387 19.1926 29.3016 19.2723 29.2446C19.3521 29.1877 19.4375 29.1592 19.5287 29.1592C19.5743 29.1592 19.6141 29.1592 19.6483 29.1592C19.6825 29.1592 19.711 29.1592 19.7338 29.1592C19.8021 29.1592 19.8705 29.1706 19.9388 29.1934C20.0072 29.2161 20.087 29.2503 20.1781 29.2959C20.2692 29.3643 20.349 29.4326 20.4174 29.501C20.4857 29.5693 20.5199 29.6605 20.5199 29.7744C20.5427 29.8428 20.5427 29.9225 20.5199 30.0137C20.4971 30.1048 20.4743 30.2074 20.4515 30.3213ZM23.1859 31.8936L22.2289 33.5684C22.115 33.7734 21.9554 33.8931 21.7504 33.9272C21.5453 33.9614 21.3402 33.9329 21.1351 33.8418C20.9301 33.7279 20.8047 33.5627 20.7592 33.3462C20.7136 33.1297 20.7478 32.9189 20.8617 32.7139L21.8187 31.0732C21.8871 30.9365 21.9839 30.834 22.1093 30.7656C22.2346 30.6973 22.3656 30.6631 22.5023 30.6631C22.5707 30.6631 22.639 30.6688 22.7074 30.6802C22.7758 30.6916 22.8441 30.7314 22.9125 30.7998C23.0948 30.891 23.2144 31.0448 23.2714 31.2612C23.3283 31.4777 23.2998 31.6885 23.1859 31.8936ZM25.2709 33.0557C25.1569 33.2835 24.9917 33.4259 24.7753 33.4829C24.5588 33.5399 24.348 33.4886 24.1429 33.3291H24.0746L24.4847 32.6455C24.5759 32.5544 24.6385 32.4404 24.6727 32.3037C24.7069 32.167 24.7468 32.0303 24.7924 31.8936L24.9291 31.9619C25.1342 32.0986 25.2652 32.2752 25.3221 32.4917C25.3791 32.7082 25.362 32.8962 25.2709 33.0557ZM30.1586 27.0742C30.1586 27.0059 30.1529 26.9375 30.1415 26.8691C30.1301 26.8008 30.113 26.7324 30.0902 26.6641C30.3636 26.5501 30.6143 26.4077 30.8422 26.2368C31.07 26.0659 31.2523 25.8438 31.389 25.5703C31.7308 24.9779 31.8163 24.3683 31.6454 23.7417C31.4745 23.1151 31.0928 22.6423 30.5004 22.3232L27.2533 20.4775C27.0482 20.3636 26.8374 20.3351 26.621 20.3921C26.4045 20.4491 26.2507 20.5687 26.1595 20.751C26.0456 20.9561 26.0171 21.1611 26.0741 21.3662C26.1311 21.5713 26.2507 21.7308 26.433 21.8447L29.6801 23.6904C29.8851 23.8044 30.0048 23.9639 30.0389 24.1689C30.0731 24.374 30.0446 24.5905 29.9535 24.8184C29.8396 25.0234 29.6801 25.1431 29.475 25.1772C29.2699 25.2114 29.0534 25.1829 28.8256 25.0918L25.6127 23.2119C25.4076 23.1208 25.1968 23.1037 24.9803 23.1606C24.7639 23.2176 24.5987 23.3258 24.4847 23.4854C24.3936 23.6904 24.3765 23.9012 24.4335 24.1177C24.4904 24.3341 24.6101 24.488 24.7924 24.5791L28.0052 26.459C28.1192 26.5273 28.2046 26.5957 28.2616 26.6641C28.3186 26.7324 28.347 26.8236 28.347 26.9375C28.347 27.0514 28.347 27.1597 28.347 27.2622C28.347 27.3647 28.3243 27.4616 28.2787 27.5527C28.2559 27.6211 28.2217 27.6781 28.1761 27.7236C28.1306 27.7692 28.0736 27.8034 28.0052 27.8262C27.9825 27.8262 27.9654 27.8376 27.954 27.8604C27.9426 27.8831 27.9141 27.8945 27.8685 27.8945C27.7774 27.9401 27.6691 27.9572 27.5438 27.9458C27.4185 27.9344 27.2989 27.8945 27.1849 27.8262L23.9379 25.9805C23.7328 25.8665 23.5277 25.8381 23.3226 25.895C23.1176 25.952 22.958 26.0716 22.8441 26.2539C22.753 26.459 22.7359 26.6698 22.7928 26.8862C22.8498 27.1027 22.958 27.2565 23.1176 27.3477L26.3646 29.2275C26.5697 29.3187 26.695 29.4725 26.7406 29.689C26.7862 29.9054 26.752 30.1162 26.6381 30.3213C26.5697 30.4124 26.4956 30.4922 26.4159 30.5605C26.3361 30.6289 26.2507 30.6631 26.1595 30.6631C26.0456 30.6859 25.9374 30.6859 25.8348 30.6631C25.7323 30.6403 25.6355 30.6175 25.5443 30.5947L23.4594 29.3643C23.1859 29.2275 22.9125 29.125 22.639 29.0566C22.3656 28.9883 22.0922 28.9997 21.8187 29.0908C21.7048 28.7946 21.5624 28.5326 21.3915 28.3047C21.2206 28.0768 20.9984 27.8945 20.725 27.7578C20.4743 27.6211 20.2009 27.5243 19.9047 27.4673C19.6084 27.4103 19.3236 27.416 19.0502 27.4844C18.959 27.2109 18.8223 26.9603 18.64 26.7324C18.4577 26.5046 18.2299 26.3223 17.9564 26.1855C17.683 26.0488 17.4095 25.952 17.1361 25.895C16.8627 25.8381 16.5892 25.8438 16.3158 25.9121C16.2019 25.6387 16.0538 25.388 15.8715 25.1602C15.6892 24.9323 15.4613 24.7386 15.1879 24.5791C14.6182 24.2373 14.0144 24.1576 13.3763 24.3398C12.7383 24.5221 12.2712 24.9095 11.975 25.502L11.4965 26.5957L8.45447 25.7754L11.2572 15.2822L16.5892 13.4365C16.8627 13.3226 17.1304 13.2827 17.3925 13.3169C17.6545 13.3511 17.9108 13.4365 18.1615 13.5732L20.2465 14.8037L18.64 17.4355C18.3438 17.9596 18.2299 18.5122 18.2982 19.0933C18.3666 19.6743 18.6172 20.1813 19.0502 20.6143C19.3008 20.8421 19.5857 21.0244 19.9047 21.1611C20.2237 21.2979 20.5427 21.3662 20.8617 21.3662C21.2035 21.3662 21.5225 21.2979 21.8187 21.1611C22.115 21.0244 22.3884 20.8421 22.639 20.6143L26.6381 16.6152C26.8204 16.4785 26.9115 16.2905 26.9115 16.0513C26.9115 15.812 26.8204 15.624 26.6381 15.4873C26.5013 15.3278 26.3191 15.248 26.0912 15.248C25.8633 15.248 25.681 15.3278 25.5443 15.4873L21.5453 19.4863C21.3402 19.6914 21.101 19.7939 20.8275 19.7939C20.5541 19.7939 20.3376 19.6914 20.1781 19.4863C19.9958 19.3268 19.8876 19.1331 19.8534 18.9053C19.8192 18.6774 19.8705 18.4609 20.0072 18.2559L22.2289 14.7354C22.4795 14.3708 22.7701 14.0632 23.1005 13.8125C23.4309 13.5618 23.7784 13.3682 24.1429 13.2314L25.681 12.7529C25.9545 12.639 26.2507 12.5991 26.5697 12.6333C26.8887 12.6675 27.1849 12.7529 27.4584 12.8896L30.1586 14.3936L33.1664 25.8438L30.1586 27.0742ZM37.5072 22.2549C37.4388 22.1865 37.3591 22.1353 37.2679 22.1011C37.1768 22.0669 37.0743 22.0498 36.9603 22.0498C36.8692 22.0498 36.7723 22.0669 36.6698 22.1011C36.5673 22.1353 36.4818 22.1865 36.4135 22.2549C36.3451 22.3232 36.2938 22.4087 36.2596 22.5112C36.2255 22.6138 36.2084 22.7106 36.2084 22.8018C36.2084 22.9157 36.2255 23.0182 36.2596 23.1094C36.2938 23.2005 36.3451 23.2803 36.4135 23.3486C36.4818 23.417 36.5673 23.4683 36.6698 23.5024C36.7723 23.5366 36.8692 23.5537 36.9603 23.5537C37.0743 23.5537 37.1768 23.5366 37.2679 23.5024C37.3591 23.4683 37.4388 23.417 37.5072 23.3486C37.5756 23.2803 37.6325 23.2005 37.6781 23.1094C37.7237 23.0182 37.7465 22.9157 37.7465 22.8018C37.7692 22.7106 37.7522 22.6138 37.6952 22.5112C37.6382 22.4087 37.5756 22.3232 37.5072 22.2549ZM20.8617 3.3877C20.6566 3.3877 20.4629 3.46175 20.2806 3.60986C20.0983 3.75797 20.0072 3.95736 20.0072 4.20801V8.00195C20.0072 8.20703 20.087 8.39502 20.2465 8.56592C20.406 8.73682 20.611 8.82227 20.8617 8.82227C21.0668 8.82227 21.2548 8.74251 21.4257 8.58301C21.5966 8.4235 21.682 8.22982 21.682 8.00195V4.20801C21.6364 3.95736 21.5396 3.75797 21.3915 3.60986C21.2434 3.46175 21.0668 3.3877 20.8617 3.3877ZM21.4086 0.755859C21.3402 0.6875 21.2548 0.63623 21.1522 0.602051C21.0497 0.567871 20.9528 0.550781 20.8617 0.550781C20.7478 0.550781 20.6452 0.567871 20.5541 0.602051C20.4629 0.63623 20.3832 0.6875 20.3148 0.755859C20.2465 0.824219 20.1895 0.909668 20.1439 1.01221C20.0983 1.11475 20.0756 1.21159 20.0756 1.30273C20.0756 1.41667 20.0983 1.51921 20.1439 1.61035C20.1895 1.7015 20.2465 1.78125 20.3148 1.84961C20.3832 1.91797 20.4629 1.96924 20.5541 2.00342C20.6452 2.0376 20.7478 2.05469 20.8617 2.05469C20.9528 2.05469 21.0497 2.0376 21.1522 2.00342C21.2548 1.96924 21.3402 1.91797 21.4086 1.84961C21.4769 1.78125 21.5282 1.7015 21.5624 1.61035C21.5966 1.51921 21.6136 1.41667 21.6136 1.30273C21.6136 1.23438 21.5966 1.15462 21.5624 1.06348C21.5282 0.972332 21.4769 0.869793 21.4086 0.755859ZM15.2562 7.5918L13.889 5.16504C13.7979 4.95996 13.6441 4.83463 13.4276 4.78906C13.2111 4.74349 13.0004 4.77767 12.7953 4.8916C12.5902 5.00553 12.4649 5.16504 12.4193 5.37012C12.3737 5.5752 12.4079 5.78027 12.5219 5.98535L13.889 8.41211C13.9574 8.54883 14.0542 8.65137 14.1796 8.71973C14.3049 8.78809 14.4359 8.82227 14.5726 8.82227C14.641 8.82227 14.7094 8.81657 14.7777 8.80518C14.8461 8.79378 14.9144 8.75391 14.9828 8.68555C15.1651 8.54883 15.2847 8.37223 15.3417 8.15576C15.3986 7.93929 15.3702 7.7513 15.2562 7.5918ZM28.8256 4.8916C28.6661 4.77767 28.4838 4.74349 28.2787 4.78906C28.0736 4.83463 27.9141 4.95996 27.8002 5.16504L26.433 7.5918C26.3191 7.79688 26.2906 8.00195 26.3475 8.20703C26.4045 8.41211 26.5241 8.57162 26.7064 8.68555C26.7748 8.70833 26.8431 8.73682 26.9115 8.771C26.9799 8.80518 27.0482 8.82227 27.1166 8.82227C27.2533 8.82227 27.3843 8.78809 27.5096 8.71973C27.635 8.65137 27.7318 8.54883 27.8002 8.41211L29.2015 5.98535C29.2927 5.78027 29.3098 5.5752 29.2528 5.37012C29.1958 5.16504 29.0534 5.00553 28.8256 4.8916Z" fill="#6D6CEE"/>
</g>
<defs>
<clipPath id="clip0_148_150">
<rect width="40.72" height="35" fill="white" transform="matrix(1 0 0 -1 0.451172 35.5508)"/>
</clipPath>
</defs>
</svg>
