<svg width="17" height="16" viewBox="0 0 17 16" fill="none" xmlns="http://www.w3.org/2000/svg">
<path d="M8.06406 4.40781C6.07656 4.40781 4.47344 6.01094 4.47344 7.99844C4.47344 9.98594 6.07656 11.5891 8.06406 11.5891C10.0516 11.5891 11.6547 9.98594 11.6547 7.99844C11.6547 6.01094 10.0516 4.40781 8.06406 4.40781ZM8.06406 10.3328C6.77969 10.3328 5.72969 9.28594 5.72969 7.99844C5.72969 6.71094 6.77656 5.66406 8.06406 5.66406C9.35156 5.66406 10.3984 6.71094 10.3984 7.99844C10.3984 9.28594 9.34844 10.3328 8.06406 10.3328ZM12.6391 4.26094C12.6391 4.72656 12.2641 5.09844 11.8016 5.09844C11.3359 5.09844 10.9641 4.72344 10.9641 4.26094C10.9641 3.79844 11.3391 3.42344 11.8016 3.42344C12.2641 3.42344 12.6391 3.79844 12.6391 4.26094ZM15.0172 5.11094C14.9641 3.98906 14.7078 2.99531 13.8859 2.17656C13.0672 1.35781 12.0734 1.10156 10.9516 1.04531C9.79531 0.979688 6.32969 0.979688 5.17344 1.04531C4.05469 1.09844 3.06094 1.35469 2.23906 2.17344C1.41719 2.99219 1.16406 3.98594 1.10781 5.10781C1.04219 6.26406 1.04219 9.72969 1.10781 10.8859C1.16094 12.0078 1.41719 13.0016 2.23906 13.8203C3.06094 14.6391 4.05156 14.8953 5.17344 14.9516C6.32969 15.0172 9.79531 15.0172 10.9516 14.9516C12.0734 14.8984 13.0672 14.6422 13.8859 13.8203C14.7047 13.0016 14.9609 12.0078 15.0172 10.8859C15.0828 9.72969 15.0828 6.26719 15.0172 5.11094ZM13.5234 12.1266C13.2797 12.7391 12.8078 13.2109 12.1922 13.4578C11.2703 13.8234 9.08281 13.7391 8.06406 13.7391C7.04531 13.7391 4.85469 13.8203 3.93594 13.4578C3.32344 13.2141 2.85156 12.7422 2.60469 12.1266C2.23906 11.2047 2.32344 9.01719 2.32344 7.99844C2.32344 6.97969 2.24219 4.78906 2.60469 3.87031C2.84844 3.25781 3.32031 2.78594 3.93594 2.53906C4.85781 2.17344 7.04531 2.25781 8.06406 2.25781C9.08281 2.25781 11.2734 2.17656 12.1922 2.53906C12.8047 2.78281 13.2766 3.25469 13.5234 3.87031C13.8891 4.79219 13.8047 6.97969 13.8047 7.99844C13.8047 9.01719 13.8891 11.2078 13.5234 12.1266Z" fill="white"/>
</svg>
