<svg width="17" height="16" viewBox="0 0 17 16" fill="none" xmlns="http://www.w3.org/2000/svg">
<g clip-path="url(#clip0_148_285)">
<path d="M15.328 4.33694C15.1535 3.68 14.6395 3.16261 13.9868 2.98702C12.8037 2.66797 8.0598 2.66797 8.0598 2.66797C8.0598 2.66797 3.31591 2.66797 2.13283 2.98702C1.48014 3.16264 0.966082 3.68 0.791609 4.33694C0.474609 5.52769 0.474609 8.01208 0.474609 8.01208C0.474609 8.01208 0.474609 10.4965 0.791609 11.6872C0.966082 12.3442 1.48014 12.84 2.13283 13.0156C3.31591 13.3346 8.0598 13.3346 8.0598 13.3346C8.0598 13.3346 12.8037 13.3346 13.9868 13.0156C14.6395 12.84 15.1535 12.3442 15.328 11.6872C15.645 10.4965 15.645 8.01208 15.645 8.01208C15.645 8.01208 15.645 5.52769 15.328 4.33694ZM6.50828 10.2677V5.75644L10.4732 8.01214L6.50828 10.2677Z" fill="white"/>
</g>
<defs>
<clipPath id="clip0_148_285">
<rect width="16" height="16" fill="white" transform="translate(0.0605469)"/>
</clipPath>
</defs>
</svg>
