<svg width="17" height="16" viewBox="0 0 17 16" fill="none" xmlns="http://www.w3.org/2000/svg">
<g clip-path="url(#clip0_148_277)">
<path d="M15.8105 8C15.8105 3.71875 12.3418 0.25 8.06055 0.25C3.7793 0.25 0.310547 3.71875 0.310547 8C0.310547 11.8681 3.14461 15.0744 6.84961 15.6562V10.2403H4.88086V8H6.84961V6.2925C6.84961 4.35031 8.00586 3.2775 9.7768 3.2775C10.6249 3.2775 11.5118 3.42875 11.5118 3.42875V5.335H10.5343C9.5718 5.335 9.27148 5.9325 9.27148 6.54531V8H11.4209L11.0771 10.2403H9.27148V15.6562C12.9765 15.0744 15.8105 11.8681 15.8105 8Z" fill="white"/>
</g>
<defs>
<clipPath id="clip0_148_277">
<rect width="16" height="16" fill="white" transform="translate(0.0605469)"/>
</clipPath>
</defs>
</svg>
