<svg width="347" height="394" viewBox="0 0 347 394" fill="none" xmlns="http://www.w3.org/2000/svg">
<path d="M346.63 72.354C343.141 161.708 340.823 210.387 333.274 283.86C326.889 311.956 320.134 323.581 298.216 331.512C210.928 356.427 149.695 376.376 78.6863 393.375C49.7753 392.682 39.4681 385.15 30.2728 368.296C14.5603 308.847 11.6217 243.756 0.223145 160.969C-1.30475 129.042 5.01514 116.076 30.2729 102.45C122.808 63.5923 257.315 10.4905 257.315 10.4905C257.315 10.4905 283.026 -1.88049 298.216 1.29456C315.982 6.86559 323.71 13.0341 333.274 25.5384C344.308 40.2925 347.198 50.5517 346.63 72.354Z" fill="white"/>
</svg>
