<svg width="389" height="458" viewBox="0 0 389 458" fill="none" xmlns="http://www.w3.org/2000/svg">
<g filter="url(#filter0_d_148_325)">
<path d="M355.069 84.5991C363.036 173.665 366.962 222.242 368.872 296.077C366.132 324.759 360.919 337.152 340.195 347.82C256.81 383.694 198.631 411.309 130.379 437.249C101.617 440.259 90.4309 434.107 79.1558 418.567C55.9699 361.616 44.7312 297.434 22.8393 216.785C17.2411 185.316 21.8508 171.647 45.1587 154.903C131.965 104.532 258.577 34.6651 258.577 34.6651C258.577 34.6651 282.495 19.1078 297.966 20.3142C316.298 23.5677 324.752 28.6972 335.837 39.8758C348.666 53.0978 352.844 62.9033 355.069 84.5991Z" fill="#6D6CEE"/>
</g>
<defs>
<filter id="filter0_d_148_325" x="0.6875" y="0.246094" width="388.184" height="457.742" filterUnits="userSpaceOnUse" color-interpolation-filters="sRGB">
<feFlood flood-opacity="0" result="BackgroundImageFix"/>
<feColorMatrix in="SourceAlpha" type="matrix" values="0 0 0 0 0 0 0 0 0 0 0 0 0 0 0 0 0 0 127 0" result="hardAlpha"/>
<feOffset/>
<feGaussianBlur stdDeviation="10"/>
<feComposite in2="hardAlpha" operator="out"/>
<feColorMatrix type="matrix" values="0 0 0 0 0 0 0 0 0 0 0 0 0 0 0 0 0 0 0.1 0"/>
<feBlend mode="normal" in2="BackgroundImageFix" result="effect1_dropShadow_148_325"/>
<feBlend mode="normal" in="SourceGraphic" in2="effect1_dropShadow_148_325" result="shape"/>
</filter>
</defs>
</svg>
